M48
; DRILL file {KiCad (6.0.2)} date Fri Apr  1 11:33:38 2022
; FORMAT={-:-/ absolute / metric / decimal}
; #@! TF.CreationDate,2022-04-01T11:33:38+02:00
; #@! TF.GenerationSoftware,Kicad,Pcbnew,(6.0.2)
; #@! TF.FileFunction,Plated,1,2,PTH
FMAT,2
METRIC
; #@! TA.AperFunction,Plated,PTH,ViaDrill
T1C0.400
; #@! TA.AperFunction,Plated,PTH,ComponentDrill
T2C0.650
; #@! TA.AperFunction,Plated,PTH,ComponentDrill
T3C0.700
; #@! TA.AperFunction,Plated,PTH,ComponentDrill
T4C0.800
; #@! TA.AperFunction,Plated,PTH,ComponentDrill
T5C1.000
; #@! TA.AperFunction,Plated,PTH,ComponentDrill
T6C1.400
%
G90
G05
T1
X101.025Y-114.925
X106.2Y-126.85
X108.55Y-113.8
X112.1Y-125.2
X113.85Y-136.9
X117.0Y-111.85
X118.95Y-110.85
X119.35Y-115.95
X119.4Y-125.6
X119.65Y-113.85
X123.8Y-116.85
X123.95Y-118.45
X127.07Y-125.57
X132.5Y-121.55
X132.85Y-119.9
X132.95Y-130.35
X136.075Y-121.425
X136.2Y-119.85
X140.5Y-115.35
X141.1Y-110.85
X141.2Y-112.3
X153.15Y-140.25
X154.0Y-136.25
X154.0Y-139.0
T2
X93.36Y-132.25
X95.9Y-129.71
X95.9Y-134.79
T3
X105.85Y-111.9
X105.925Y-107.825
X106.2Y-125.2
X107.25Y-121.3
X110.2Y-125.2
X110.55Y-121.3
X113.85Y-121.3
X117.05Y-121.3
X139.025Y-132.7
X141.975Y-122.85
X144.925Y-119.975
X147.775Y-111.375
X147.925Y-127.625
X148.625Y-119.9
T4
X109.5Y-134.75
X116.0Y-134.75
T5
X124.53Y-127.95
X127.07Y-127.95
X129.61Y-127.95
X132.15Y-127.95
X157.2Y-105.6
X157.2Y-108.14
X157.2Y-110.68
X157.2Y-113.22
X157.2Y-115.76
X157.2Y-118.3
T6
X93.7Y-109.051
X93.7Y-114.049
T0
M30
