G04 #@! TF.GenerationSoftware,KiCad,Pcbnew,(6.0.2)*
G04 #@! TF.CreationDate,2022-04-01T11:32:24+02:00*
G04 #@! TF.ProjectId,iot node,696f7420-6e6f-4646-952e-6b696361645f,rev?*
G04 #@! TF.SameCoordinates,Original*
G04 #@! TF.FileFunction,Other,User*
%FSLAX46Y46*%
G04 Gerber Fmt 4.6, Leading zero omitted, Abs format (unit mm)*
G04 Created by KiCad (PCBNEW (6.0.2)) date 2022-04-01 11:32:24*
%MOMM*%
%LPD*%
G01*
G04 APERTURE LIST*
%ADD10C,0.050000*%
%ADD11C,0.120000*%
%ADD12C,0.100000*%
G04 APERTURE END LIST*
D10*
X162300000Y-100150000D02*
G75*
G03*
X162300000Y-100150000I-2350000J0D01*
G01*
X93600000Y-100250000D02*
G75*
G03*
X93600000Y-100250000I-2350000J0D01*
G01*
X120650000Y-143150000D02*
G75*
G03*
X120650000Y-143150000I-2350000J0D01*
G01*
X107275000Y-109025000D02*
X104525000Y-109025000D01*
X104525000Y-106625000D02*
X104525000Y-109025000D01*
X104525000Y-106625000D02*
X107275000Y-106625000D01*
X107275000Y-109025000D02*
X107275000Y-106625000D01*
X111550000Y-126400000D02*
X108800000Y-126400000D01*
X111550000Y-126400000D02*
X111550000Y-124000000D01*
X108800000Y-124000000D02*
X111550000Y-124000000D01*
X108800000Y-124000000D02*
X108800000Y-126400000D01*
D11*
X139800000Y-124500000D02*
X139800000Y-103000000D01*
X120200000Y-103000000D02*
X120200000Y-124500000D01*
X139800000Y-124500000D02*
X120200000Y-124500000D01*
X139800000Y-103000000D02*
X120200000Y-103000000D01*
D10*
X148980000Y-117235000D02*
X145420000Y-117235000D01*
X145420000Y-117235000D02*
X145420000Y-113675000D01*
X145420000Y-113675000D02*
X148980000Y-113675000D01*
X148980000Y-113675000D02*
X148980000Y-117235000D01*
X109150000Y-120100000D02*
X111900000Y-120100000D01*
X109150000Y-120100000D02*
X109150000Y-122500000D01*
X111900000Y-122500000D02*
X111900000Y-120100000D01*
X111900000Y-122500000D02*
X109150000Y-122500000D01*
X148875000Y-130275000D02*
X148875000Y-132175000D01*
X148875000Y-132175000D02*
X145175000Y-132175000D01*
X145175000Y-132175000D02*
X145175000Y-130275000D01*
X145175000Y-130275000D02*
X148875000Y-130275000D01*
X114530000Y-118230000D02*
X112570000Y-118230000D01*
X112570000Y-114470000D02*
X114530000Y-114470000D01*
X112570000Y-118230000D02*
X112570000Y-114470000D01*
X114530000Y-114470000D02*
X114530000Y-118230000D01*
X145870000Y-108380000D02*
X145870000Y-106420000D01*
X149630000Y-108380000D02*
X145870000Y-108380000D01*
X149630000Y-106420000D02*
X149630000Y-108380000D01*
X145870000Y-106420000D02*
X149630000Y-106420000D01*
X104450000Y-110700000D02*
X107200000Y-110700000D01*
X107200000Y-113100000D02*
X104450000Y-113100000D01*
X107200000Y-113100000D02*
X107200000Y-110700000D01*
X104450000Y-110700000D02*
X104450000Y-113100000D01*
D12*
X155000000Y-134750000D02*
X155000000Y-125350000D01*
X155000000Y-125350000D02*
X159100000Y-125350000D01*
X159100000Y-125350000D02*
X159100000Y-134750000D01*
X159100000Y-134750000D02*
X155000000Y-134750000D01*
G36*
X159100000Y-134750000D02*
G01*
X155000000Y-134750000D01*
X155000000Y-125350000D01*
X159100000Y-125350000D01*
X159100000Y-134750000D01*
G37*
X159100000Y-134750000D02*
X155000000Y-134750000D01*
X155000000Y-125350000D01*
X159100000Y-125350000D01*
X159100000Y-134750000D01*
D10*
X100207500Y-109495000D02*
X103967500Y-109495000D01*
X103967500Y-111455000D02*
X100207500Y-111455000D01*
X100207500Y-111455000D02*
X100207500Y-109495000D01*
X103967500Y-109495000D02*
X103967500Y-111455000D01*
X105120000Y-118142500D02*
X105120000Y-114382500D01*
X107080000Y-114382500D02*
X107080000Y-118142500D01*
X107080000Y-118142500D02*
X105120000Y-118142500D01*
X105120000Y-114382500D02*
X107080000Y-114382500D01*
D12*
X125900000Y-137850000D02*
X135300000Y-137850000D01*
X135300000Y-137850000D02*
X135300000Y-141950000D01*
X135300000Y-141950000D02*
X125900000Y-141950000D01*
X125900000Y-141950000D02*
X125900000Y-137850000D01*
G36*
X135300000Y-141950000D02*
G01*
X125900000Y-141950000D01*
X125900000Y-137850000D01*
X135300000Y-137850000D01*
X135300000Y-141950000D01*
G37*
X135300000Y-141950000D02*
X125900000Y-141950000D01*
X125900000Y-137850000D01*
X135300000Y-137850000D01*
X135300000Y-141950000D01*
D10*
X103950000Y-113750000D02*
X100250000Y-113750000D01*
X103950000Y-111850000D02*
X103950000Y-113750000D01*
X100250000Y-111850000D02*
X103950000Y-111850000D01*
X100250000Y-113750000D02*
X100250000Y-111850000D01*
X115200000Y-122500000D02*
X112450000Y-122500000D01*
X115200000Y-122500000D02*
X115200000Y-120100000D01*
X112450000Y-120100000D02*
X112450000Y-122500000D01*
X112450000Y-120100000D02*
X115200000Y-120100000D01*
X118400000Y-122500000D02*
X118400000Y-120100000D01*
X115650000Y-120100000D02*
X118400000Y-120100000D01*
X118400000Y-122500000D02*
X115650000Y-122500000D01*
X115650000Y-120100000D02*
X115650000Y-122500000D01*
X140575000Y-121650000D02*
X143325000Y-121650000D01*
X143325000Y-124050000D02*
X143325000Y-121650000D01*
X143325000Y-124050000D02*
X140575000Y-124050000D01*
X140575000Y-121650000D02*
X140575000Y-124050000D01*
X159075000Y-137400000D02*
X155375000Y-137400000D01*
X159075000Y-135500000D02*
X159075000Y-137400000D01*
X155375000Y-137400000D02*
X155375000Y-135500000D01*
X155375000Y-135500000D02*
X159075000Y-135500000D01*
X146725000Y-128975000D02*
X146725000Y-126225000D01*
X149125000Y-126225000D02*
X146725000Y-126225000D01*
X149125000Y-126225000D02*
X149125000Y-128975000D01*
X146725000Y-128975000D02*
X149125000Y-128975000D01*
D12*
X135300000Y-135325000D02*
X125900000Y-135325000D01*
X125900000Y-135325000D02*
X125900000Y-131225000D01*
X125900000Y-131225000D02*
X135300000Y-131225000D01*
X135300000Y-131225000D02*
X135300000Y-135325000D01*
G36*
X135300000Y-135325000D02*
G01*
X125900000Y-135325000D01*
X125900000Y-131225000D01*
X135300000Y-131225000D01*
X135300000Y-135325000D01*
G37*
X135300000Y-135325000D02*
X125900000Y-135325000D01*
X125900000Y-131225000D01*
X135300000Y-131225000D01*
X135300000Y-135325000D01*
D10*
X149825000Y-118500000D02*
X147425000Y-118500000D01*
X147425000Y-121250000D02*
X147425000Y-118500000D01*
X149825000Y-118500000D02*
X149825000Y-121250000D01*
X147425000Y-121250000D02*
X149825000Y-121250000D01*
X158900000Y-123550000D02*
X155200000Y-123550000D01*
X158900000Y-121650000D02*
X158900000Y-123550000D01*
X155200000Y-121650000D02*
X158900000Y-121650000D01*
X155200000Y-123550000D02*
X155200000Y-121650000D01*
X140375000Y-133900000D02*
X137625000Y-133900000D01*
X137625000Y-131500000D02*
X140375000Y-131500000D01*
X137625000Y-131500000D02*
X137625000Y-133900000D01*
X140375000Y-133900000D02*
X140375000Y-131500000D01*
X130042500Y-135595000D02*
X130042500Y-137555000D01*
X130042500Y-137555000D02*
X126282500Y-137555000D01*
X126282500Y-135595000D02*
X130042500Y-135595000D01*
X126282500Y-137555000D02*
X126282500Y-135595000D01*
X155470000Y-140680000D02*
X155470000Y-138720000D01*
X159230000Y-138720000D02*
X159230000Y-140680000D01*
X155470000Y-138720000D02*
X159230000Y-138720000D01*
X159230000Y-140680000D02*
X155470000Y-140680000D01*
X108350000Y-141050000D02*
X108350000Y-142950000D01*
X108350000Y-142950000D02*
X104650000Y-142950000D01*
X104650000Y-142950000D02*
X104650000Y-141050000D01*
X104650000Y-141050000D02*
X108350000Y-141050000D01*
X145750000Y-123575000D02*
X149450000Y-123575000D01*
X149450000Y-123575000D02*
X149450000Y-125475000D01*
X149450000Y-125475000D02*
X145750000Y-125475000D01*
X145750000Y-125475000D02*
X145750000Y-123575000D01*
X103925000Y-107100000D02*
X103925000Y-109000000D01*
X103925000Y-109000000D02*
X100225000Y-109000000D01*
X100225000Y-107100000D02*
X103925000Y-107100000D01*
X100225000Y-109000000D02*
X100225000Y-107100000D01*
X107550000Y-126400000D02*
X107550000Y-124000000D01*
X104800000Y-124000000D02*
X104800000Y-126400000D01*
X107550000Y-126400000D02*
X104800000Y-126400000D01*
X104800000Y-124000000D02*
X107550000Y-124000000D01*
X131275000Y-137575000D02*
X131275000Y-135675000D01*
X134975000Y-137575000D02*
X131275000Y-137575000D01*
X134975000Y-135675000D02*
X134975000Y-137575000D01*
X131275000Y-135675000D02*
X134975000Y-135675000D01*
X138100000Y-128000000D02*
X138100000Y-126100000D01*
X138100000Y-126100000D02*
X141800000Y-126100000D01*
X141800000Y-128000000D02*
X138100000Y-128000000D01*
X141800000Y-126100000D02*
X141800000Y-128000000D01*
X116045000Y-118255000D02*
X116045000Y-114495000D01*
X118005000Y-118255000D02*
X116045000Y-118255000D01*
X116045000Y-114495000D02*
X118005000Y-114495000D01*
X118005000Y-114495000D02*
X118005000Y-118255000D01*
X143725000Y-121325000D02*
X146125000Y-121325000D01*
X146125000Y-118575000D02*
X143725000Y-118575000D01*
X143725000Y-121325000D02*
X143725000Y-118575000D01*
X146125000Y-118575000D02*
X146125000Y-121325000D01*
X111025000Y-114525000D02*
X111025000Y-118225000D01*
X109125000Y-118225000D02*
X109125000Y-114525000D01*
X109125000Y-114525000D02*
X111025000Y-114525000D01*
X111025000Y-118225000D02*
X109125000Y-118225000D01*
X145870000Y-103070000D02*
X149630000Y-103070000D01*
X145870000Y-105030000D02*
X145870000Y-103070000D01*
X149630000Y-103070000D02*
X149630000Y-105030000D01*
X149630000Y-105030000D02*
X145870000Y-105030000D01*
X148975000Y-109975000D02*
X148975000Y-112725000D01*
X146575000Y-112725000D02*
X148975000Y-112725000D01*
X148975000Y-109975000D02*
X146575000Y-109975000D01*
X146575000Y-112725000D02*
X146575000Y-109975000D01*
X108600000Y-122500000D02*
X105850000Y-122500000D01*
X108600000Y-122500000D02*
X108600000Y-120100000D01*
X105850000Y-120100000D02*
X108600000Y-120100000D01*
X105850000Y-120100000D02*
X105850000Y-122500000D01*
M02*
