%FSLAX45Y45*%
G04 Gerber Fmt 4.5, Leading zero omitted, Abs format (unit mm)*
G04 Created by KiCad (PCBNEW (6.0.2)) date 2022-04-01 11:26:05*
%MOMM*%
%LPD*%
G01*
G04 APERTURE LIST*
%TA.AperFunction,Profile*%
%ADD10C,0.100000*%
%TD*%
%ADD11C,0.200000*%
%ADD12C,0.210000*%
G04 APERTURE END LIST*
D10*
X8840000Y-14705000D02*
X16325000Y-14705000D01*
X16325000Y-14705000D02*
X16325000Y-9730000D01*
X16325000Y-9730000D02*
X8840000Y-9730000D01*
X8840000Y-9730000D02*
X8840000Y-14705000D01*
D11*
D12*
X9020000Y-9920000D02*
X9230000Y-10130000D01*
X9230000Y-9920000D02*
X9020000Y-10130000D01*
X11725000Y-14210000D02*
X11935000Y-14420000D01*
X11935000Y-14210000D02*
X11725000Y-14420000D01*
X15890000Y-9910000D02*
X16100000Y-10120000D01*
X16100000Y-9910000D02*
X15890000Y-10120000D01*
D11*
X9092619Y-15020476D02*
X9092619Y-14820476D01*
X9140238Y-14820476D01*
X9168810Y-14830000D01*
X9187857Y-14849048D01*
X9197381Y-14868095D01*
X9206905Y-14906190D01*
X9206905Y-14934762D01*
X9197381Y-14972857D01*
X9187857Y-14991905D01*
X9168810Y-15010952D01*
X9140238Y-15020476D01*
X9092619Y-15020476D01*
X9292619Y-15020476D02*
X9292619Y-14887143D01*
X9292619Y-14925238D02*
X9302143Y-14906190D01*
X9311667Y-14896667D01*
X9330714Y-14887143D01*
X9349762Y-14887143D01*
X9416429Y-15020476D02*
X9416429Y-14887143D01*
X9416429Y-14820476D02*
X9406905Y-14830000D01*
X9416429Y-14839524D01*
X9425952Y-14830000D01*
X9416429Y-14820476D01*
X9416429Y-14839524D01*
X9540238Y-15020476D02*
X9521190Y-15010952D01*
X9511667Y-14991905D01*
X9511667Y-14820476D01*
X9645000Y-15020476D02*
X9625952Y-15010952D01*
X9616429Y-14991905D01*
X9616429Y-14820476D01*
X9873571Y-15020476D02*
X9873571Y-14820476D01*
X9940238Y-14963333D01*
X10006905Y-14820476D01*
X10006905Y-15020476D01*
X10187857Y-15020476D02*
X10187857Y-14915714D01*
X10178333Y-14896667D01*
X10159286Y-14887143D01*
X10121190Y-14887143D01*
X10102143Y-14896667D01*
X10187857Y-15010952D02*
X10168810Y-15020476D01*
X10121190Y-15020476D01*
X10102143Y-15010952D01*
X10092619Y-14991905D01*
X10092619Y-14972857D01*
X10102143Y-14953809D01*
X10121190Y-14944286D01*
X10168810Y-14944286D01*
X10187857Y-14934762D01*
X10283095Y-14887143D02*
X10283095Y-15087143D01*
X10283095Y-14896667D02*
X10302143Y-14887143D01*
X10340238Y-14887143D01*
X10359286Y-14896667D01*
X10368810Y-14906190D01*
X10378333Y-14925238D01*
X10378333Y-14982381D01*
X10368810Y-15001428D01*
X10359286Y-15010952D01*
X10340238Y-15020476D01*
X10302143Y-15020476D01*
X10283095Y-15010952D01*
X10464048Y-15001428D02*
X10473571Y-15010952D01*
X10464048Y-15020476D01*
X10454524Y-15010952D01*
X10464048Y-15001428D01*
X10464048Y-15020476D01*
X10464048Y-14896667D02*
X10473571Y-14906190D01*
X10464048Y-14915714D01*
X10454524Y-14906190D01*
X10464048Y-14896667D01*
X10464048Y-14915714D01*
X8635000Y-15250000D02*
X8835000Y-15450000D01*
X8835000Y-15250000D02*
X8635000Y-15450000D01*
X9083095Y-15259524D02*
X9092619Y-15250000D01*
X9111667Y-15240476D01*
X9159286Y-15240476D01*
X9178333Y-15250000D01*
X9187857Y-15259524D01*
X9197381Y-15278571D01*
X9197381Y-15297619D01*
X9187857Y-15326190D01*
X9073571Y-15440476D01*
X9197381Y-15440476D01*
X9283095Y-15421428D02*
X9292619Y-15430952D01*
X9283095Y-15440476D01*
X9273571Y-15430952D01*
X9283095Y-15421428D01*
X9283095Y-15440476D01*
X9483095Y-15440476D02*
X9368810Y-15440476D01*
X9425952Y-15440476D02*
X9425952Y-15240476D01*
X9406905Y-15269048D01*
X9387857Y-15288095D01*
X9368810Y-15297619D01*
X9606905Y-15240476D02*
X9625952Y-15240476D01*
X9645000Y-15250000D01*
X9654524Y-15259524D01*
X9664048Y-15278571D01*
X9673571Y-15316667D01*
X9673571Y-15364286D01*
X9664048Y-15402381D01*
X9654524Y-15421428D01*
X9645000Y-15430952D01*
X9625952Y-15440476D01*
X9606905Y-15440476D01*
X9587857Y-15430952D01*
X9578333Y-15421428D01*
X9568810Y-15402381D01*
X9559286Y-15364286D01*
X9559286Y-15316667D01*
X9568810Y-15278571D01*
X9578333Y-15259524D01*
X9587857Y-15250000D01*
X9606905Y-15240476D01*
X9797381Y-15240476D02*
X9816429Y-15240476D01*
X9835476Y-15250000D01*
X9845000Y-15259524D01*
X9854524Y-15278571D01*
X9864048Y-15316667D01*
X9864048Y-15364286D01*
X9854524Y-15402381D01*
X9845000Y-15421428D01*
X9835476Y-15430952D01*
X9816429Y-15440476D01*
X9797381Y-15440476D01*
X9778333Y-15430952D01*
X9768810Y-15421428D01*
X9759286Y-15402381D01*
X9749762Y-15364286D01*
X9749762Y-15316667D01*
X9759286Y-15278571D01*
X9768810Y-15259524D01*
X9778333Y-15250000D01*
X9797381Y-15240476D01*
X9949762Y-15440476D02*
X9949762Y-15307143D01*
X9949762Y-15326190D02*
X9959286Y-15316667D01*
X9978333Y-15307143D01*
X10006905Y-15307143D01*
X10025952Y-15316667D01*
X10035476Y-15335714D01*
X10035476Y-15440476D01*
X10035476Y-15335714D02*
X10045000Y-15316667D01*
X10064048Y-15307143D01*
X10092619Y-15307143D01*
X10111667Y-15316667D01*
X10121190Y-15335714D01*
X10121190Y-15440476D01*
X10216429Y-15440476D02*
X10216429Y-15307143D01*
X10216429Y-15326190D02*
X10225952Y-15316667D01*
X10245000Y-15307143D01*
X10273571Y-15307143D01*
X10292619Y-15316667D01*
X10302143Y-15335714D01*
X10302143Y-15440476D01*
X10302143Y-15335714D02*
X10311667Y-15316667D01*
X10330714Y-15307143D01*
X10359286Y-15307143D01*
X10378333Y-15316667D01*
X10387857Y-15335714D01*
X10387857Y-15440476D01*
X10778333Y-15230952D02*
X10606905Y-15488095D01*
X11035476Y-15240476D02*
X11054524Y-15240476D01*
X11073571Y-15250000D01*
X11083095Y-15259524D01*
X11092619Y-15278571D01*
X11102143Y-15316667D01*
X11102143Y-15364286D01*
X11092619Y-15402381D01*
X11083095Y-15421428D01*
X11073571Y-15430952D01*
X11054524Y-15440476D01*
X11035476Y-15440476D01*
X11016429Y-15430952D01*
X11006905Y-15421428D01*
X10997381Y-15402381D01*
X10987857Y-15364286D01*
X10987857Y-15316667D01*
X10997381Y-15278571D01*
X11006905Y-15259524D01*
X11016429Y-15250000D01*
X11035476Y-15240476D01*
X11187857Y-15421428D02*
X11197381Y-15430952D01*
X11187857Y-15440476D01*
X11178333Y-15430952D01*
X11187857Y-15421428D01*
X11187857Y-15440476D01*
X11321190Y-15240476D02*
X11340238Y-15240476D01*
X11359286Y-15250000D01*
X11368809Y-15259524D01*
X11378333Y-15278571D01*
X11387857Y-15316667D01*
X11387857Y-15364286D01*
X11378333Y-15402381D01*
X11368809Y-15421428D01*
X11359286Y-15430952D01*
X11340238Y-15440476D01*
X11321190Y-15440476D01*
X11302143Y-15430952D01*
X11292619Y-15421428D01*
X11283095Y-15402381D01*
X11273571Y-15364286D01*
X11273571Y-15316667D01*
X11283095Y-15278571D01*
X11292619Y-15259524D01*
X11302143Y-15250000D01*
X11321190Y-15240476D01*
X11502143Y-15326190D02*
X11483095Y-15316667D01*
X11473571Y-15307143D01*
X11464048Y-15288095D01*
X11464048Y-15278571D01*
X11473571Y-15259524D01*
X11483095Y-15250000D01*
X11502143Y-15240476D01*
X11540238Y-15240476D01*
X11559286Y-15250000D01*
X11568809Y-15259524D01*
X11578333Y-15278571D01*
X11578333Y-15288095D01*
X11568809Y-15307143D01*
X11559286Y-15316667D01*
X11540238Y-15326190D01*
X11502143Y-15326190D01*
X11483095Y-15335714D01*
X11473571Y-15345238D01*
X11464048Y-15364286D01*
X11464048Y-15402381D01*
X11473571Y-15421428D01*
X11483095Y-15430952D01*
X11502143Y-15440476D01*
X11540238Y-15440476D01*
X11559286Y-15430952D01*
X11568809Y-15421428D01*
X11578333Y-15402381D01*
X11578333Y-15364286D01*
X11568809Y-15345238D01*
X11559286Y-15335714D01*
X11540238Y-15326190D01*
X11654524Y-15259524D02*
X11664048Y-15250000D01*
X11683095Y-15240476D01*
X11730714Y-15240476D01*
X11749762Y-15250000D01*
X11759286Y-15259524D01*
X11768809Y-15278571D01*
X11768809Y-15297619D01*
X11759286Y-15326190D01*
X11645000Y-15440476D01*
X11768809Y-15440476D01*
X11835476Y-15240476D02*
X11968809Y-15240476D01*
X11883095Y-15440476D01*
X12035476Y-15240476D02*
X12035476Y-15278571D01*
X12111667Y-15240476D02*
X12111667Y-15278571D01*
X12406905Y-15516667D02*
X12397381Y-15507143D01*
X12378333Y-15478571D01*
X12368809Y-15459524D01*
X12359286Y-15430952D01*
X12349762Y-15383333D01*
X12349762Y-15345238D01*
X12359286Y-15297619D01*
X12368809Y-15269048D01*
X12378333Y-15250000D01*
X12397381Y-15221428D01*
X12406905Y-15211905D01*
X12464048Y-15240476D02*
X12587857Y-15240476D01*
X12521190Y-15316667D01*
X12549762Y-15316667D01*
X12568809Y-15326190D01*
X12578333Y-15335714D01*
X12587857Y-15354762D01*
X12587857Y-15402381D01*
X12578333Y-15421428D01*
X12568809Y-15430952D01*
X12549762Y-15440476D01*
X12492619Y-15440476D01*
X12473571Y-15430952D01*
X12464048Y-15421428D01*
X12825952Y-15440476D02*
X12825952Y-15240476D01*
X12911667Y-15440476D02*
X12911667Y-15335714D01*
X12902143Y-15316667D01*
X12883095Y-15307143D01*
X12854524Y-15307143D01*
X12835476Y-15316667D01*
X12825952Y-15326190D01*
X13035476Y-15440476D02*
X13016428Y-15430952D01*
X13006905Y-15421428D01*
X12997381Y-15402381D01*
X12997381Y-15345238D01*
X13006905Y-15326190D01*
X13016428Y-15316667D01*
X13035476Y-15307143D01*
X13064048Y-15307143D01*
X13083095Y-15316667D01*
X13092619Y-15326190D01*
X13102143Y-15345238D01*
X13102143Y-15402381D01*
X13092619Y-15421428D01*
X13083095Y-15430952D01*
X13064048Y-15440476D01*
X13035476Y-15440476D01*
X13216428Y-15440476D02*
X13197381Y-15430952D01*
X13187857Y-15411905D01*
X13187857Y-15240476D01*
X13368809Y-15430952D02*
X13349762Y-15440476D01*
X13311667Y-15440476D01*
X13292619Y-15430952D01*
X13283095Y-15411905D01*
X13283095Y-15335714D01*
X13292619Y-15316667D01*
X13311667Y-15307143D01*
X13349762Y-15307143D01*
X13368809Y-15316667D01*
X13378333Y-15335714D01*
X13378333Y-15354762D01*
X13283095Y-15373809D01*
X13454524Y-15430952D02*
X13473571Y-15440476D01*
X13511667Y-15440476D01*
X13530714Y-15430952D01*
X13540238Y-15411905D01*
X13540238Y-15402381D01*
X13530714Y-15383333D01*
X13511667Y-15373809D01*
X13483095Y-15373809D01*
X13464048Y-15364286D01*
X13454524Y-15345238D01*
X13454524Y-15335714D01*
X13464048Y-15316667D01*
X13483095Y-15307143D01*
X13511667Y-15307143D01*
X13530714Y-15316667D01*
X13606905Y-15516667D02*
X13616428Y-15507143D01*
X13635476Y-15478571D01*
X13645000Y-15459524D01*
X13654524Y-15430952D01*
X13664048Y-15383333D01*
X13664048Y-15345238D01*
X13654524Y-15297619D01*
X13645000Y-15269048D01*
X13635476Y-15250000D01*
X13616428Y-15221428D01*
X13606905Y-15211905D01*
X13968809Y-15516667D02*
X13959286Y-15507143D01*
X13940238Y-15478571D01*
X13930714Y-15459524D01*
X13921190Y-15430952D01*
X13911667Y-15383333D01*
X13911667Y-15345238D01*
X13921190Y-15297619D01*
X13930714Y-15269048D01*
X13940238Y-15250000D01*
X13959286Y-15221428D01*
X13968809Y-15211905D01*
X14045000Y-15307143D02*
X14045000Y-15440476D01*
X14045000Y-15326190D02*
X14054524Y-15316667D01*
X14073571Y-15307143D01*
X14102143Y-15307143D01*
X14121190Y-15316667D01*
X14130714Y-15335714D01*
X14130714Y-15440476D01*
X14254524Y-15440476D02*
X14235476Y-15430952D01*
X14225952Y-15421428D01*
X14216428Y-15402381D01*
X14216428Y-15345238D01*
X14225952Y-15326190D01*
X14235476Y-15316667D01*
X14254524Y-15307143D01*
X14283095Y-15307143D01*
X14302143Y-15316667D01*
X14311667Y-15326190D01*
X14321190Y-15345238D01*
X14321190Y-15402381D01*
X14311667Y-15421428D01*
X14302143Y-15430952D01*
X14283095Y-15440476D01*
X14254524Y-15440476D01*
X14378333Y-15307143D02*
X14454524Y-15307143D01*
X14406905Y-15240476D02*
X14406905Y-15411905D01*
X14416428Y-15430952D01*
X14435476Y-15440476D01*
X14454524Y-15440476D01*
X14673571Y-15307143D02*
X14673571Y-15507143D01*
X14673571Y-15316667D02*
X14692619Y-15307143D01*
X14730714Y-15307143D01*
X14749762Y-15316667D01*
X14759286Y-15326190D01*
X14768809Y-15345238D01*
X14768809Y-15402381D01*
X14759286Y-15421428D01*
X14749762Y-15430952D01*
X14730714Y-15440476D01*
X14692619Y-15440476D01*
X14673571Y-15430952D01*
X14883095Y-15440476D02*
X14864048Y-15430952D01*
X14854524Y-15411905D01*
X14854524Y-15240476D01*
X15045000Y-15440476D02*
X15045000Y-15335714D01*
X15035476Y-15316667D01*
X15016428Y-15307143D01*
X14978333Y-15307143D01*
X14959286Y-15316667D01*
X15045000Y-15430952D02*
X15025952Y-15440476D01*
X14978333Y-15440476D01*
X14959286Y-15430952D01*
X14949762Y-15411905D01*
X14949762Y-15392857D01*
X14959286Y-15373809D01*
X14978333Y-15364286D01*
X15025952Y-15364286D01*
X15045000Y-15354762D01*
X15111667Y-15307143D02*
X15187857Y-15307143D01*
X15140238Y-15240476D02*
X15140238Y-15411905D01*
X15149762Y-15430952D01*
X15168809Y-15440476D01*
X15187857Y-15440476D01*
X15330714Y-15430952D02*
X15311667Y-15440476D01*
X15273571Y-15440476D01*
X15254524Y-15430952D01*
X15245000Y-15411905D01*
X15245000Y-15335714D01*
X15254524Y-15316667D01*
X15273571Y-15307143D01*
X15311667Y-15307143D01*
X15330714Y-15316667D01*
X15340238Y-15335714D01*
X15340238Y-15354762D01*
X15245000Y-15373809D01*
X15511667Y-15440476D02*
X15511667Y-15240476D01*
X15511667Y-15430952D02*
X15492619Y-15440476D01*
X15454524Y-15440476D01*
X15435476Y-15430952D01*
X15425952Y-15421428D01*
X15416428Y-15402381D01*
X15416428Y-15345238D01*
X15425952Y-15326190D01*
X15435476Y-15316667D01*
X15454524Y-15307143D01*
X15492619Y-15307143D01*
X15511667Y-15316667D01*
X15587857Y-15516667D02*
X15597381Y-15507143D01*
X15616428Y-15478571D01*
X15625952Y-15459524D01*
X15635476Y-15430952D01*
X15645000Y-15383333D01*
X15645000Y-15345238D01*
X15635476Y-15297619D01*
X15625952Y-15269048D01*
X15616428Y-15250000D01*
X15597381Y-15221428D01*
X15587857Y-15211905D01*
M02*
