%FSLAX45Y45*%
G04 Gerber Fmt 4.5, Leading zero omitted, Abs format (unit mm)*
G04 Created by KiCad (PCBNEW (6.0.2)) date 2022-04-01 11:26:05*
%MOMM*%
%LPD*%
G01*
G04 APERTURE LIST*
%TA.AperFunction,Profile*%
%ADD10C,0.100000*%
%TD*%
%ADD11C,0.200000*%
%ADD12C,0.040000*%
%ADD13C,0.065000*%
%ADD14C,0.070000*%
%ADD15C,0.080000*%
%ADD16C,0.100000*%
%ADD17C,0.139954*%
G04 APERTURE END LIST*
D10*
X8840000Y-14705000D02*
X16325000Y-14705000D01*
X16325000Y-14705000D02*
X16325000Y-9730000D01*
X16325000Y-9730000D02*
X8840000Y-9730000D01*
X8840000Y-9730000D02*
X8840000Y-14705000D01*
D11*
D12*
X10082500Y-11472500D02*
X10122500Y-11512500D01*
X10122500Y-11472500D02*
X10082500Y-11512500D01*
X10600000Y-12665000D02*
X10640000Y-12705000D01*
X10640000Y-12665000D02*
X10600000Y-12705000D01*
X10835000Y-11360000D02*
X10875000Y-11400000D01*
X10875000Y-11360000D02*
X10835000Y-11400000D01*
X11190000Y-12500000D02*
X11230000Y-12540000D01*
X11230000Y-12500000D02*
X11190000Y-12540000D01*
X11365000Y-13670000D02*
X11405000Y-13710000D01*
X11405000Y-13670000D02*
X11365000Y-13710000D01*
X11680000Y-11165000D02*
X11720000Y-11205000D01*
X11720000Y-11165000D02*
X11680000Y-11205000D01*
X11875000Y-11065000D02*
X11915000Y-11105000D01*
X11915000Y-11065000D02*
X11875000Y-11105000D01*
X11915000Y-11575000D02*
X11955000Y-11615000D01*
X11955000Y-11575000D02*
X11915000Y-11615000D01*
X11920000Y-12540000D02*
X11960000Y-12580000D01*
X11960000Y-12540000D02*
X11920000Y-12580000D01*
X11945000Y-11365000D02*
X11985000Y-11405000D01*
X11985000Y-11365000D02*
X11945000Y-11405000D01*
X12360000Y-11665000D02*
X12400000Y-11705000D01*
X12400000Y-11665000D02*
X12360000Y-11705000D01*
X12375000Y-11825000D02*
X12415000Y-11865000D01*
X12415000Y-11825000D02*
X12375000Y-11865000D01*
X12687000Y-12537000D02*
X12727000Y-12577000D01*
X12727000Y-12537000D02*
X12687000Y-12577000D01*
X13230000Y-12135000D02*
X13270000Y-12175000D01*
X13270000Y-12135000D02*
X13230000Y-12175000D01*
X13265000Y-11970000D02*
X13305000Y-12010000D01*
X13305000Y-11970000D02*
X13265000Y-12010000D01*
X13275000Y-13015000D02*
X13315000Y-13055000D01*
X13315000Y-13015000D02*
X13275000Y-13055000D01*
X13587500Y-12122500D02*
X13627500Y-12162500D01*
X13627500Y-12122500D02*
X13587500Y-12162500D01*
X13600000Y-11965000D02*
X13640000Y-12005000D01*
X13640000Y-11965000D02*
X13600000Y-12005000D01*
X14030000Y-11515000D02*
X14070000Y-11555000D01*
X14070000Y-11515000D02*
X14030000Y-11555000D01*
X14090000Y-11065000D02*
X14130000Y-11105000D01*
X14130000Y-11065000D02*
X14090000Y-11105000D01*
X14100000Y-11210000D02*
X14140000Y-11250000D01*
X14140000Y-11210000D02*
X14100000Y-11250000D01*
X15295000Y-14005000D02*
X15335000Y-14045000D01*
X15335000Y-14005000D02*
X15295000Y-14045000D01*
X15380000Y-13605000D02*
X15420000Y-13645000D01*
X15420000Y-13605000D02*
X15380000Y-13645000D01*
X15380000Y-13880000D02*
X15420000Y-13920000D01*
X15420000Y-13880000D02*
X15380000Y-13920000D01*
D13*
X9368500Y-13225000D02*
G75*
G03*
X9368500Y-13225000I-32500J0D01*
G01*
X9622500Y-12971000D02*
G75*
G03*
X9622500Y-12971000I-32500J0D01*
G01*
X9622500Y-13479000D02*
G75*
G03*
X9622500Y-13479000I-32500J0D01*
G01*
D14*
X10585000Y-11155000D02*
X10585000Y-11225000D01*
X10550000Y-11190000D02*
X10620000Y-11190000D01*
X10592500Y-10747500D02*
X10592500Y-10817500D01*
X10557500Y-10782500D02*
X10627500Y-10782500D01*
X10620000Y-12485000D02*
X10620000Y-12555000D01*
X10585000Y-12520000D02*
X10655000Y-12520000D01*
X10725000Y-12095000D02*
X10725000Y-12165000D01*
X10690000Y-12130000D02*
X10760000Y-12130000D01*
X11020000Y-12485000D02*
X11020000Y-12555000D01*
X10985000Y-12520000D02*
X11055000Y-12520000D01*
X11055000Y-12095000D02*
X11055000Y-12165000D01*
X11020000Y-12130000D02*
X11090000Y-12130000D01*
X11385000Y-12095000D02*
X11385000Y-12165000D01*
X11350000Y-12130000D02*
X11420000Y-12130000D01*
X11705000Y-12095000D02*
X11705000Y-12165000D01*
X11670000Y-12130000D02*
X11740000Y-12130000D01*
X13902500Y-13235000D02*
X13902500Y-13305000D01*
X13867500Y-13270000D02*
X13937500Y-13270000D01*
X14197500Y-12250000D02*
X14197500Y-12320000D01*
X14162500Y-12285000D02*
X14232500Y-12285000D01*
X14492500Y-11962500D02*
X14492500Y-12032500D01*
X14457500Y-11997500D02*
X14527500Y-11997500D01*
X14777500Y-11102500D02*
X14777500Y-11172500D01*
X14742500Y-11137500D02*
X14812500Y-11137500D01*
X14792500Y-12727500D02*
X14792500Y-12797500D01*
X14757500Y-12762500D02*
X14827500Y-12762500D01*
X14862500Y-11955000D02*
X14862500Y-12025000D01*
X14827500Y-11990000D02*
X14897500Y-11990000D01*
D15*
X10978285Y-13503284D02*
X10978285Y-13446715D01*
X10921716Y-13446715D01*
X10921716Y-13503284D01*
X10978285Y-13503284D01*
X11628284Y-13503284D02*
X11628284Y-13446715D01*
X11571715Y-13446715D01*
X11571715Y-13503284D01*
X11628284Y-13503284D01*
D16*
X12453000Y-12845000D02*
X12503000Y-12795000D01*
X12453000Y-12745000D01*
X12403000Y-12795000D01*
X12453000Y-12845000D01*
X12707000Y-12845000D02*
X12757000Y-12795000D01*
X12707000Y-12745000D01*
X12657000Y-12795000D01*
X12707000Y-12845000D01*
X12961000Y-12845000D02*
X13011000Y-12795000D01*
X12961000Y-12745000D01*
X12911000Y-12795000D01*
X12961000Y-12845000D01*
X13215000Y-12845000D02*
X13265000Y-12795000D01*
X13215000Y-12745000D01*
X13165000Y-12795000D01*
X13215000Y-12845000D01*
X15720000Y-10610000D02*
X15770000Y-10560000D01*
X15720000Y-10510000D01*
X15670000Y-10560000D01*
X15720000Y-10610000D01*
X15720000Y-10864000D02*
X15770000Y-10814000D01*
X15720000Y-10764000D01*
X15670000Y-10814000D01*
X15720000Y-10864000D01*
X15720000Y-11118000D02*
X15770000Y-11068000D01*
X15720000Y-11018000D01*
X15670000Y-11068000D01*
X15720000Y-11118000D01*
X15720000Y-11372000D02*
X15770000Y-11322000D01*
X15720000Y-11272000D01*
X15670000Y-11322000D01*
X15720000Y-11372000D01*
X15720000Y-11626000D02*
X15770000Y-11576000D01*
X15720000Y-11526000D01*
X15670000Y-11576000D01*
X15720000Y-11626000D01*
X15720000Y-11880000D02*
X15770000Y-11830000D01*
X15720000Y-11780000D01*
X15670000Y-11830000D01*
X15720000Y-11880000D01*
D17*
X9300023Y-10835087D02*
X9439977Y-10975041D01*
X9439977Y-10835087D02*
X9300023Y-10975041D01*
X9439977Y-10905064D02*
G75*
G03*
X9439977Y-10905064I-69977J0D01*
G01*
X9300023Y-11334959D02*
X9439977Y-11474913D01*
X9439977Y-11334959D02*
X9300023Y-11474913D01*
X9439977Y-11404936D02*
G75*
G03*
X9439977Y-11404936I-69977J0D01*
G01*
D11*
X9092619Y-15020476D02*
X9092619Y-14820476D01*
X9140238Y-14820476D01*
X9168810Y-14830000D01*
X9187857Y-14849048D01*
X9197381Y-14868095D01*
X9206905Y-14906190D01*
X9206905Y-14934762D01*
X9197381Y-14972857D01*
X9187857Y-14991905D01*
X9168810Y-15010952D01*
X9140238Y-15020476D01*
X9092619Y-15020476D01*
X9292619Y-15020476D02*
X9292619Y-14887143D01*
X9292619Y-14925238D02*
X9302143Y-14906190D01*
X9311667Y-14896667D01*
X9330714Y-14887143D01*
X9349762Y-14887143D01*
X9416429Y-15020476D02*
X9416429Y-14887143D01*
X9416429Y-14820476D02*
X9406905Y-14830000D01*
X9416429Y-14839524D01*
X9425952Y-14830000D01*
X9416429Y-14820476D01*
X9416429Y-14839524D01*
X9540238Y-15020476D02*
X9521190Y-15010952D01*
X9511667Y-14991905D01*
X9511667Y-14820476D01*
X9645000Y-15020476D02*
X9625952Y-15010952D01*
X9616429Y-14991905D01*
X9616429Y-14820476D01*
X9873571Y-15020476D02*
X9873571Y-14820476D01*
X9940238Y-14963333D01*
X10006905Y-14820476D01*
X10006905Y-15020476D01*
X10187857Y-15020476D02*
X10187857Y-14915714D01*
X10178333Y-14896667D01*
X10159286Y-14887143D01*
X10121190Y-14887143D01*
X10102143Y-14896667D01*
X10187857Y-15010952D02*
X10168810Y-15020476D01*
X10121190Y-15020476D01*
X10102143Y-15010952D01*
X10092619Y-14991905D01*
X10092619Y-14972857D01*
X10102143Y-14953809D01*
X10121190Y-14944286D01*
X10168810Y-14944286D01*
X10187857Y-14934762D01*
X10283095Y-14887143D02*
X10283095Y-15087143D01*
X10283095Y-14896667D02*
X10302143Y-14887143D01*
X10340238Y-14887143D01*
X10359286Y-14896667D01*
X10368810Y-14906190D01*
X10378333Y-14925238D01*
X10378333Y-14982381D01*
X10368810Y-15001428D01*
X10359286Y-15010952D01*
X10340238Y-15020476D01*
X10302143Y-15020476D01*
X10283095Y-15010952D01*
X10464048Y-15001428D02*
X10473571Y-15010952D01*
X10464048Y-15020476D01*
X10454524Y-15010952D01*
X10464048Y-15001428D01*
X10464048Y-15020476D01*
X10464048Y-14896667D02*
X10473571Y-14906190D01*
X10464048Y-14915714D01*
X10454524Y-14906190D01*
X10464048Y-14896667D01*
X10464048Y-14915714D01*
D12*
X8795000Y-15330000D02*
X8835000Y-15370000D01*
X8835000Y-15330000D02*
X8795000Y-15370000D01*
D11*
X9130714Y-15240476D02*
X9149762Y-15240476D01*
X9168810Y-15250000D01*
X9178333Y-15259524D01*
X9187857Y-15278571D01*
X9197381Y-15316667D01*
X9197381Y-15364286D01*
X9187857Y-15402381D01*
X9178333Y-15421428D01*
X9168810Y-15430952D01*
X9149762Y-15440476D01*
X9130714Y-15440476D01*
X9111667Y-15430952D01*
X9102143Y-15421428D01*
X9092619Y-15402381D01*
X9083095Y-15364286D01*
X9083095Y-15316667D01*
X9092619Y-15278571D01*
X9102143Y-15259524D01*
X9111667Y-15250000D01*
X9130714Y-15240476D01*
X9283095Y-15421428D02*
X9292619Y-15430952D01*
X9283095Y-15440476D01*
X9273571Y-15430952D01*
X9283095Y-15421428D01*
X9283095Y-15440476D01*
X9464048Y-15307143D02*
X9464048Y-15440476D01*
X9416429Y-15230952D02*
X9368810Y-15373809D01*
X9492619Y-15373809D01*
X9606905Y-15240476D02*
X9625952Y-15240476D01*
X9645000Y-15250000D01*
X9654524Y-15259524D01*
X9664048Y-15278571D01*
X9673571Y-15316667D01*
X9673571Y-15364286D01*
X9664048Y-15402381D01*
X9654524Y-15421428D01*
X9645000Y-15430952D01*
X9625952Y-15440476D01*
X9606905Y-15440476D01*
X9587857Y-15430952D01*
X9578333Y-15421428D01*
X9568810Y-15402381D01*
X9559286Y-15364286D01*
X9559286Y-15316667D01*
X9568810Y-15278571D01*
X9578333Y-15259524D01*
X9587857Y-15250000D01*
X9606905Y-15240476D01*
X9797381Y-15240476D02*
X9816429Y-15240476D01*
X9835476Y-15250000D01*
X9845000Y-15259524D01*
X9854524Y-15278571D01*
X9864048Y-15316667D01*
X9864048Y-15364286D01*
X9854524Y-15402381D01*
X9845000Y-15421428D01*
X9835476Y-15430952D01*
X9816429Y-15440476D01*
X9797381Y-15440476D01*
X9778333Y-15430952D01*
X9768810Y-15421428D01*
X9759286Y-15402381D01*
X9749762Y-15364286D01*
X9749762Y-15316667D01*
X9759286Y-15278571D01*
X9768810Y-15259524D01*
X9778333Y-15250000D01*
X9797381Y-15240476D01*
X9949762Y-15440476D02*
X9949762Y-15307143D01*
X9949762Y-15326190D02*
X9959286Y-15316667D01*
X9978333Y-15307143D01*
X10006905Y-15307143D01*
X10025952Y-15316667D01*
X10035476Y-15335714D01*
X10035476Y-15440476D01*
X10035476Y-15335714D02*
X10045000Y-15316667D01*
X10064048Y-15307143D01*
X10092619Y-15307143D01*
X10111667Y-15316667D01*
X10121190Y-15335714D01*
X10121190Y-15440476D01*
X10216429Y-15440476D02*
X10216429Y-15307143D01*
X10216429Y-15326190D02*
X10225952Y-15316667D01*
X10245000Y-15307143D01*
X10273571Y-15307143D01*
X10292619Y-15316667D01*
X10302143Y-15335714D01*
X10302143Y-15440476D01*
X10302143Y-15335714D02*
X10311667Y-15316667D01*
X10330714Y-15307143D01*
X10359286Y-15307143D01*
X10378333Y-15316667D01*
X10387857Y-15335714D01*
X10387857Y-15440476D01*
X10778333Y-15230952D02*
X10606905Y-15488095D01*
X11035476Y-15240476D02*
X11054524Y-15240476D01*
X11073571Y-15250000D01*
X11083095Y-15259524D01*
X11092619Y-15278571D01*
X11102143Y-15316667D01*
X11102143Y-15364286D01*
X11092619Y-15402381D01*
X11083095Y-15421428D01*
X11073571Y-15430952D01*
X11054524Y-15440476D01*
X11035476Y-15440476D01*
X11016429Y-15430952D01*
X11006905Y-15421428D01*
X10997381Y-15402381D01*
X10987857Y-15364286D01*
X10987857Y-15316667D01*
X10997381Y-15278571D01*
X11006905Y-15259524D01*
X11016429Y-15250000D01*
X11035476Y-15240476D01*
X11187857Y-15421428D02*
X11197381Y-15430952D01*
X11187857Y-15440476D01*
X11178333Y-15430952D01*
X11187857Y-15421428D01*
X11187857Y-15440476D01*
X11321190Y-15240476D02*
X11340238Y-15240476D01*
X11359286Y-15250000D01*
X11368809Y-15259524D01*
X11378333Y-15278571D01*
X11387857Y-15316667D01*
X11387857Y-15364286D01*
X11378333Y-15402381D01*
X11368809Y-15421428D01*
X11359286Y-15430952D01*
X11340238Y-15440476D01*
X11321190Y-15440476D01*
X11302143Y-15430952D01*
X11292619Y-15421428D01*
X11283095Y-15402381D01*
X11273571Y-15364286D01*
X11273571Y-15316667D01*
X11283095Y-15278571D01*
X11292619Y-15259524D01*
X11302143Y-15250000D01*
X11321190Y-15240476D01*
X11578333Y-15440476D02*
X11464048Y-15440476D01*
X11521190Y-15440476D02*
X11521190Y-15240476D01*
X11502143Y-15269048D01*
X11483095Y-15288095D01*
X11464048Y-15297619D01*
X11759286Y-15240476D02*
X11664048Y-15240476D01*
X11654524Y-15335714D01*
X11664048Y-15326190D01*
X11683095Y-15316667D01*
X11730714Y-15316667D01*
X11749762Y-15326190D01*
X11759286Y-15335714D01*
X11768809Y-15354762D01*
X11768809Y-15402381D01*
X11759286Y-15421428D01*
X11749762Y-15430952D01*
X11730714Y-15440476D01*
X11683095Y-15440476D01*
X11664048Y-15430952D01*
X11654524Y-15421428D01*
X11835476Y-15240476D02*
X11968809Y-15240476D01*
X11883095Y-15440476D01*
X12035476Y-15240476D02*
X12035476Y-15278571D01*
X12111667Y-15240476D02*
X12111667Y-15278571D01*
X12406905Y-15516667D02*
X12397381Y-15507143D01*
X12378333Y-15478571D01*
X12368809Y-15459524D01*
X12359286Y-15430952D01*
X12349762Y-15383333D01*
X12349762Y-15345238D01*
X12359286Y-15297619D01*
X12368809Y-15269048D01*
X12378333Y-15250000D01*
X12397381Y-15221428D01*
X12406905Y-15211905D01*
X12473571Y-15259524D02*
X12483095Y-15250000D01*
X12502143Y-15240476D01*
X12549762Y-15240476D01*
X12568809Y-15250000D01*
X12578333Y-15259524D01*
X12587857Y-15278571D01*
X12587857Y-15297619D01*
X12578333Y-15326190D01*
X12464048Y-15440476D01*
X12587857Y-15440476D01*
X12759286Y-15307143D02*
X12759286Y-15440476D01*
X12711667Y-15230952D02*
X12664048Y-15373809D01*
X12787857Y-15373809D01*
X13016428Y-15440476D02*
X13016428Y-15240476D01*
X13102143Y-15440476D02*
X13102143Y-15335714D01*
X13092619Y-15316667D01*
X13073571Y-15307143D01*
X13045000Y-15307143D01*
X13025952Y-15316667D01*
X13016428Y-15326190D01*
X13225952Y-15440476D02*
X13206905Y-15430952D01*
X13197381Y-15421428D01*
X13187857Y-15402381D01*
X13187857Y-15345238D01*
X13197381Y-15326190D01*
X13206905Y-15316667D01*
X13225952Y-15307143D01*
X13254524Y-15307143D01*
X13273571Y-15316667D01*
X13283095Y-15326190D01*
X13292619Y-15345238D01*
X13292619Y-15402381D01*
X13283095Y-15421428D01*
X13273571Y-15430952D01*
X13254524Y-15440476D01*
X13225952Y-15440476D01*
X13406905Y-15440476D02*
X13387857Y-15430952D01*
X13378333Y-15411905D01*
X13378333Y-15240476D01*
X13559286Y-15430952D02*
X13540238Y-15440476D01*
X13502143Y-15440476D01*
X13483095Y-15430952D01*
X13473571Y-15411905D01*
X13473571Y-15335714D01*
X13483095Y-15316667D01*
X13502143Y-15307143D01*
X13540238Y-15307143D01*
X13559286Y-15316667D01*
X13568809Y-15335714D01*
X13568809Y-15354762D01*
X13473571Y-15373809D01*
X13645000Y-15430952D02*
X13664048Y-15440476D01*
X13702143Y-15440476D01*
X13721190Y-15430952D01*
X13730714Y-15411905D01*
X13730714Y-15402381D01*
X13721190Y-15383333D01*
X13702143Y-15373809D01*
X13673571Y-15373809D01*
X13654524Y-15364286D01*
X13645000Y-15345238D01*
X13645000Y-15335714D01*
X13654524Y-15316667D01*
X13673571Y-15307143D01*
X13702143Y-15307143D01*
X13721190Y-15316667D01*
X13797381Y-15516667D02*
X13806905Y-15507143D01*
X13825952Y-15478571D01*
X13835476Y-15459524D01*
X13845000Y-15430952D01*
X13854524Y-15383333D01*
X13854524Y-15345238D01*
X13845000Y-15297619D01*
X13835476Y-15269048D01*
X13825952Y-15250000D01*
X13806905Y-15221428D01*
X13797381Y-15211905D01*
D13*
X8835000Y-15614000D02*
G75*
G03*
X8835000Y-15614000I-32500J0D01*
G01*
D11*
X9130714Y-15504476D02*
X9149762Y-15504476D01*
X9168810Y-15514000D01*
X9178333Y-15523524D01*
X9187857Y-15542571D01*
X9197381Y-15580667D01*
X9197381Y-15628286D01*
X9187857Y-15666381D01*
X9178333Y-15685428D01*
X9168810Y-15694952D01*
X9149762Y-15704476D01*
X9130714Y-15704476D01*
X9111667Y-15694952D01*
X9102143Y-15685428D01*
X9092619Y-15666381D01*
X9083095Y-15628286D01*
X9083095Y-15580667D01*
X9092619Y-15542571D01*
X9102143Y-15523524D01*
X9111667Y-15514000D01*
X9130714Y-15504476D01*
X9283095Y-15685428D02*
X9292619Y-15694952D01*
X9283095Y-15704476D01*
X9273571Y-15694952D01*
X9283095Y-15685428D01*
X9283095Y-15704476D01*
X9464048Y-15504476D02*
X9425952Y-15504476D01*
X9406905Y-15514000D01*
X9397381Y-15523524D01*
X9378333Y-15552095D01*
X9368810Y-15590190D01*
X9368810Y-15666381D01*
X9378333Y-15685428D01*
X9387857Y-15694952D01*
X9406905Y-15704476D01*
X9445000Y-15704476D01*
X9464048Y-15694952D01*
X9473571Y-15685428D01*
X9483095Y-15666381D01*
X9483095Y-15618762D01*
X9473571Y-15599714D01*
X9464048Y-15590190D01*
X9445000Y-15580667D01*
X9406905Y-15580667D01*
X9387857Y-15590190D01*
X9378333Y-15599714D01*
X9368810Y-15618762D01*
X9664048Y-15504476D02*
X9568810Y-15504476D01*
X9559286Y-15599714D01*
X9568810Y-15590190D01*
X9587857Y-15580667D01*
X9635476Y-15580667D01*
X9654524Y-15590190D01*
X9664048Y-15599714D01*
X9673571Y-15618762D01*
X9673571Y-15666381D01*
X9664048Y-15685428D01*
X9654524Y-15694952D01*
X9635476Y-15704476D01*
X9587857Y-15704476D01*
X9568810Y-15694952D01*
X9559286Y-15685428D01*
X9797381Y-15504476D02*
X9816429Y-15504476D01*
X9835476Y-15514000D01*
X9845000Y-15523524D01*
X9854524Y-15542571D01*
X9864048Y-15580667D01*
X9864048Y-15628286D01*
X9854524Y-15666381D01*
X9845000Y-15685428D01*
X9835476Y-15694952D01*
X9816429Y-15704476D01*
X9797381Y-15704476D01*
X9778333Y-15694952D01*
X9768810Y-15685428D01*
X9759286Y-15666381D01*
X9749762Y-15628286D01*
X9749762Y-15580667D01*
X9759286Y-15542571D01*
X9768810Y-15523524D01*
X9778333Y-15514000D01*
X9797381Y-15504476D01*
X9949762Y-15704476D02*
X9949762Y-15571143D01*
X9949762Y-15590190D02*
X9959286Y-15580667D01*
X9978333Y-15571143D01*
X10006905Y-15571143D01*
X10025952Y-15580667D01*
X10035476Y-15599714D01*
X10035476Y-15704476D01*
X10035476Y-15599714D02*
X10045000Y-15580667D01*
X10064048Y-15571143D01*
X10092619Y-15571143D01*
X10111667Y-15580667D01*
X10121190Y-15599714D01*
X10121190Y-15704476D01*
X10216429Y-15704476D02*
X10216429Y-15571143D01*
X10216429Y-15590190D02*
X10225952Y-15580667D01*
X10245000Y-15571143D01*
X10273571Y-15571143D01*
X10292619Y-15580667D01*
X10302143Y-15599714D01*
X10302143Y-15704476D01*
X10302143Y-15599714D02*
X10311667Y-15580667D01*
X10330714Y-15571143D01*
X10359286Y-15571143D01*
X10378333Y-15580667D01*
X10387857Y-15599714D01*
X10387857Y-15704476D01*
X10778333Y-15494952D02*
X10606905Y-15752095D01*
X11035476Y-15504476D02*
X11054524Y-15504476D01*
X11073571Y-15514000D01*
X11083095Y-15523524D01*
X11092619Y-15542571D01*
X11102143Y-15580667D01*
X11102143Y-15628286D01*
X11092619Y-15666381D01*
X11083095Y-15685428D01*
X11073571Y-15694952D01*
X11054524Y-15704476D01*
X11035476Y-15704476D01*
X11016429Y-15694952D01*
X11006905Y-15685428D01*
X10997381Y-15666381D01*
X10987857Y-15628286D01*
X10987857Y-15580667D01*
X10997381Y-15542571D01*
X11006905Y-15523524D01*
X11016429Y-15514000D01*
X11035476Y-15504476D01*
X11187857Y-15685428D02*
X11197381Y-15694952D01*
X11187857Y-15704476D01*
X11178333Y-15694952D01*
X11187857Y-15685428D01*
X11187857Y-15704476D01*
X11321190Y-15504476D02*
X11340238Y-15504476D01*
X11359286Y-15514000D01*
X11368809Y-15523524D01*
X11378333Y-15542571D01*
X11387857Y-15580667D01*
X11387857Y-15628286D01*
X11378333Y-15666381D01*
X11368809Y-15685428D01*
X11359286Y-15694952D01*
X11340238Y-15704476D01*
X11321190Y-15704476D01*
X11302143Y-15694952D01*
X11292619Y-15685428D01*
X11283095Y-15666381D01*
X11273571Y-15628286D01*
X11273571Y-15580667D01*
X11283095Y-15542571D01*
X11292619Y-15523524D01*
X11302143Y-15514000D01*
X11321190Y-15504476D01*
X11464048Y-15523524D02*
X11473571Y-15514000D01*
X11492619Y-15504476D01*
X11540238Y-15504476D01*
X11559286Y-15514000D01*
X11568809Y-15523524D01*
X11578333Y-15542571D01*
X11578333Y-15561619D01*
X11568809Y-15590190D01*
X11454524Y-15704476D01*
X11578333Y-15704476D01*
X11759286Y-15504476D02*
X11664048Y-15504476D01*
X11654524Y-15599714D01*
X11664048Y-15590190D01*
X11683095Y-15580667D01*
X11730714Y-15580667D01*
X11749762Y-15590190D01*
X11759286Y-15599714D01*
X11768809Y-15618762D01*
X11768809Y-15666381D01*
X11759286Y-15685428D01*
X11749762Y-15694952D01*
X11730714Y-15704476D01*
X11683095Y-15704476D01*
X11664048Y-15694952D01*
X11654524Y-15685428D01*
X11940238Y-15504476D02*
X11902143Y-15504476D01*
X11883095Y-15514000D01*
X11873571Y-15523524D01*
X11854524Y-15552095D01*
X11845000Y-15590190D01*
X11845000Y-15666381D01*
X11854524Y-15685428D01*
X11864048Y-15694952D01*
X11883095Y-15704476D01*
X11921190Y-15704476D01*
X11940238Y-15694952D01*
X11949762Y-15685428D01*
X11959286Y-15666381D01*
X11959286Y-15618762D01*
X11949762Y-15599714D01*
X11940238Y-15590190D01*
X11921190Y-15580667D01*
X11883095Y-15580667D01*
X11864048Y-15590190D01*
X11854524Y-15599714D01*
X11845000Y-15618762D01*
X12035476Y-15504476D02*
X12035476Y-15542571D01*
X12111667Y-15504476D02*
X12111667Y-15542571D01*
X12406905Y-15780667D02*
X12397381Y-15771143D01*
X12378333Y-15742571D01*
X12368809Y-15723524D01*
X12359286Y-15694952D01*
X12349762Y-15647333D01*
X12349762Y-15609238D01*
X12359286Y-15561619D01*
X12368809Y-15533048D01*
X12378333Y-15514000D01*
X12397381Y-15485428D01*
X12406905Y-15475905D01*
X12464048Y-15504476D02*
X12587857Y-15504476D01*
X12521190Y-15580667D01*
X12549762Y-15580667D01*
X12568809Y-15590190D01*
X12578333Y-15599714D01*
X12587857Y-15618762D01*
X12587857Y-15666381D01*
X12578333Y-15685428D01*
X12568809Y-15694952D01*
X12549762Y-15704476D01*
X12492619Y-15704476D01*
X12473571Y-15694952D01*
X12464048Y-15685428D01*
X12825952Y-15704476D02*
X12825952Y-15504476D01*
X12911667Y-15704476D02*
X12911667Y-15599714D01*
X12902143Y-15580667D01*
X12883095Y-15571143D01*
X12854524Y-15571143D01*
X12835476Y-15580667D01*
X12825952Y-15590190D01*
X13035476Y-15704476D02*
X13016428Y-15694952D01*
X13006905Y-15685428D01*
X12997381Y-15666381D01*
X12997381Y-15609238D01*
X13006905Y-15590190D01*
X13016428Y-15580667D01*
X13035476Y-15571143D01*
X13064048Y-15571143D01*
X13083095Y-15580667D01*
X13092619Y-15590190D01*
X13102143Y-15609238D01*
X13102143Y-15666381D01*
X13092619Y-15685428D01*
X13083095Y-15694952D01*
X13064048Y-15704476D01*
X13035476Y-15704476D01*
X13216428Y-15704476D02*
X13197381Y-15694952D01*
X13187857Y-15675905D01*
X13187857Y-15504476D01*
X13368809Y-15694952D02*
X13349762Y-15704476D01*
X13311667Y-15704476D01*
X13292619Y-15694952D01*
X13283095Y-15675905D01*
X13283095Y-15599714D01*
X13292619Y-15580667D01*
X13311667Y-15571143D01*
X13349762Y-15571143D01*
X13368809Y-15580667D01*
X13378333Y-15599714D01*
X13378333Y-15618762D01*
X13283095Y-15637809D01*
X13454524Y-15694952D02*
X13473571Y-15704476D01*
X13511667Y-15704476D01*
X13530714Y-15694952D01*
X13540238Y-15675905D01*
X13540238Y-15666381D01*
X13530714Y-15647333D01*
X13511667Y-15637809D01*
X13483095Y-15637809D01*
X13464048Y-15628286D01*
X13454524Y-15609238D01*
X13454524Y-15599714D01*
X13464048Y-15580667D01*
X13483095Y-15571143D01*
X13511667Y-15571143D01*
X13530714Y-15580667D01*
X13606905Y-15780667D02*
X13616428Y-15771143D01*
X13635476Y-15742571D01*
X13645000Y-15723524D01*
X13654524Y-15694952D01*
X13664048Y-15647333D01*
X13664048Y-15609238D01*
X13654524Y-15561619D01*
X13645000Y-15533048D01*
X13635476Y-15514000D01*
X13616428Y-15485428D01*
X13606905Y-15475905D01*
D14*
X8800000Y-15843000D02*
X8800000Y-15913000D01*
X8765000Y-15878000D02*
X8835000Y-15878000D01*
D11*
X9130714Y-15768476D02*
X9149762Y-15768476D01*
X9168810Y-15778000D01*
X9178333Y-15787524D01*
X9187857Y-15806571D01*
X9197381Y-15844667D01*
X9197381Y-15892286D01*
X9187857Y-15930381D01*
X9178333Y-15949428D01*
X9168810Y-15958952D01*
X9149762Y-15968476D01*
X9130714Y-15968476D01*
X9111667Y-15958952D01*
X9102143Y-15949428D01*
X9092619Y-15930381D01*
X9083095Y-15892286D01*
X9083095Y-15844667D01*
X9092619Y-15806571D01*
X9102143Y-15787524D01*
X9111667Y-15778000D01*
X9130714Y-15768476D01*
X9283095Y-15949428D02*
X9292619Y-15958952D01*
X9283095Y-15968476D01*
X9273571Y-15958952D01*
X9283095Y-15949428D01*
X9283095Y-15968476D01*
X9359286Y-15768476D02*
X9492619Y-15768476D01*
X9406905Y-15968476D01*
X9606905Y-15768476D02*
X9625952Y-15768476D01*
X9645000Y-15778000D01*
X9654524Y-15787524D01*
X9664048Y-15806571D01*
X9673571Y-15844667D01*
X9673571Y-15892286D01*
X9664048Y-15930381D01*
X9654524Y-15949428D01*
X9645000Y-15958952D01*
X9625952Y-15968476D01*
X9606905Y-15968476D01*
X9587857Y-15958952D01*
X9578333Y-15949428D01*
X9568810Y-15930381D01*
X9559286Y-15892286D01*
X9559286Y-15844667D01*
X9568810Y-15806571D01*
X9578333Y-15787524D01*
X9587857Y-15778000D01*
X9606905Y-15768476D01*
X9797381Y-15768476D02*
X9816429Y-15768476D01*
X9835476Y-15778000D01*
X9845000Y-15787524D01*
X9854524Y-15806571D01*
X9864048Y-15844667D01*
X9864048Y-15892286D01*
X9854524Y-15930381D01*
X9845000Y-15949428D01*
X9835476Y-15958952D01*
X9816429Y-15968476D01*
X9797381Y-15968476D01*
X9778333Y-15958952D01*
X9768810Y-15949428D01*
X9759286Y-15930381D01*
X9749762Y-15892286D01*
X9749762Y-15844667D01*
X9759286Y-15806571D01*
X9768810Y-15787524D01*
X9778333Y-15778000D01*
X9797381Y-15768476D01*
X9949762Y-15968476D02*
X9949762Y-15835143D01*
X9949762Y-15854190D02*
X9959286Y-15844667D01*
X9978333Y-15835143D01*
X10006905Y-15835143D01*
X10025952Y-15844667D01*
X10035476Y-15863714D01*
X10035476Y-15968476D01*
X10035476Y-15863714D02*
X10045000Y-15844667D01*
X10064048Y-15835143D01*
X10092619Y-15835143D01*
X10111667Y-15844667D01*
X10121190Y-15863714D01*
X10121190Y-15968476D01*
X10216429Y-15968476D02*
X10216429Y-15835143D01*
X10216429Y-15854190D02*
X10225952Y-15844667D01*
X10245000Y-15835143D01*
X10273571Y-15835143D01*
X10292619Y-15844667D01*
X10302143Y-15863714D01*
X10302143Y-15968476D01*
X10302143Y-15863714D02*
X10311667Y-15844667D01*
X10330714Y-15835143D01*
X10359286Y-15835143D01*
X10378333Y-15844667D01*
X10387857Y-15863714D01*
X10387857Y-15968476D01*
X10778333Y-15758952D02*
X10606905Y-16016095D01*
X11035476Y-15768476D02*
X11054524Y-15768476D01*
X11073571Y-15778000D01*
X11083095Y-15787524D01*
X11092619Y-15806571D01*
X11102143Y-15844667D01*
X11102143Y-15892286D01*
X11092619Y-15930381D01*
X11083095Y-15949428D01*
X11073571Y-15958952D01*
X11054524Y-15968476D01*
X11035476Y-15968476D01*
X11016429Y-15958952D01*
X11006905Y-15949428D01*
X10997381Y-15930381D01*
X10987857Y-15892286D01*
X10987857Y-15844667D01*
X10997381Y-15806571D01*
X11006905Y-15787524D01*
X11016429Y-15778000D01*
X11035476Y-15768476D01*
X11187857Y-15949428D02*
X11197381Y-15958952D01*
X11187857Y-15968476D01*
X11178333Y-15958952D01*
X11187857Y-15949428D01*
X11187857Y-15968476D01*
X11321190Y-15768476D02*
X11340238Y-15768476D01*
X11359286Y-15778000D01*
X11368809Y-15787524D01*
X11378333Y-15806571D01*
X11387857Y-15844667D01*
X11387857Y-15892286D01*
X11378333Y-15930381D01*
X11368809Y-15949428D01*
X11359286Y-15958952D01*
X11340238Y-15968476D01*
X11321190Y-15968476D01*
X11302143Y-15958952D01*
X11292619Y-15949428D01*
X11283095Y-15930381D01*
X11273571Y-15892286D01*
X11273571Y-15844667D01*
X11283095Y-15806571D01*
X11292619Y-15787524D01*
X11302143Y-15778000D01*
X11321190Y-15768476D01*
X11464048Y-15787524D02*
X11473571Y-15778000D01*
X11492619Y-15768476D01*
X11540238Y-15768476D01*
X11559286Y-15778000D01*
X11568809Y-15787524D01*
X11578333Y-15806571D01*
X11578333Y-15825619D01*
X11568809Y-15854190D01*
X11454524Y-15968476D01*
X11578333Y-15968476D01*
X11645000Y-15768476D02*
X11778333Y-15768476D01*
X11692619Y-15968476D01*
X11940238Y-15768476D02*
X11902143Y-15768476D01*
X11883095Y-15778000D01*
X11873571Y-15787524D01*
X11854524Y-15816095D01*
X11845000Y-15854190D01*
X11845000Y-15930381D01*
X11854524Y-15949428D01*
X11864048Y-15958952D01*
X11883095Y-15968476D01*
X11921190Y-15968476D01*
X11940238Y-15958952D01*
X11949762Y-15949428D01*
X11959286Y-15930381D01*
X11959286Y-15882762D01*
X11949762Y-15863714D01*
X11940238Y-15854190D01*
X11921190Y-15844667D01*
X11883095Y-15844667D01*
X11864048Y-15854190D01*
X11854524Y-15863714D01*
X11845000Y-15882762D01*
X12035476Y-15768476D02*
X12035476Y-15806571D01*
X12111667Y-15768476D02*
X12111667Y-15806571D01*
X12406905Y-16044667D02*
X12397381Y-16035143D01*
X12378333Y-16006571D01*
X12368809Y-15987524D01*
X12359286Y-15958952D01*
X12349762Y-15911333D01*
X12349762Y-15873238D01*
X12359286Y-15825619D01*
X12368809Y-15797048D01*
X12378333Y-15778000D01*
X12397381Y-15749428D01*
X12406905Y-15739905D01*
X12587857Y-15968476D02*
X12473571Y-15968476D01*
X12530714Y-15968476D02*
X12530714Y-15768476D01*
X12511667Y-15797048D01*
X12492619Y-15816095D01*
X12473571Y-15825619D01*
X12759286Y-15835143D02*
X12759286Y-15968476D01*
X12711667Y-15758952D02*
X12664048Y-15901809D01*
X12787857Y-15901809D01*
X13016428Y-15968476D02*
X13016428Y-15768476D01*
X13102143Y-15968476D02*
X13102143Y-15863714D01*
X13092619Y-15844667D01*
X13073571Y-15835143D01*
X13045000Y-15835143D01*
X13025952Y-15844667D01*
X13016428Y-15854190D01*
X13225952Y-15968476D02*
X13206905Y-15958952D01*
X13197381Y-15949428D01*
X13187857Y-15930381D01*
X13187857Y-15873238D01*
X13197381Y-15854190D01*
X13206905Y-15844667D01*
X13225952Y-15835143D01*
X13254524Y-15835143D01*
X13273571Y-15844667D01*
X13283095Y-15854190D01*
X13292619Y-15873238D01*
X13292619Y-15930381D01*
X13283095Y-15949428D01*
X13273571Y-15958952D01*
X13254524Y-15968476D01*
X13225952Y-15968476D01*
X13406905Y-15968476D02*
X13387857Y-15958952D01*
X13378333Y-15939905D01*
X13378333Y-15768476D01*
X13559286Y-15958952D02*
X13540238Y-15968476D01*
X13502143Y-15968476D01*
X13483095Y-15958952D01*
X13473571Y-15939905D01*
X13473571Y-15863714D01*
X13483095Y-15844667D01*
X13502143Y-15835143D01*
X13540238Y-15835143D01*
X13559286Y-15844667D01*
X13568809Y-15863714D01*
X13568809Y-15882762D01*
X13473571Y-15901809D01*
X13645000Y-15958952D02*
X13664048Y-15968476D01*
X13702143Y-15968476D01*
X13721190Y-15958952D01*
X13730714Y-15939905D01*
X13730714Y-15930381D01*
X13721190Y-15911333D01*
X13702143Y-15901809D01*
X13673571Y-15901809D01*
X13654524Y-15892286D01*
X13645000Y-15873238D01*
X13645000Y-15863714D01*
X13654524Y-15844667D01*
X13673571Y-15835143D01*
X13702143Y-15835143D01*
X13721190Y-15844667D01*
X13797381Y-16044667D02*
X13806905Y-16035143D01*
X13825952Y-16006571D01*
X13835476Y-15987524D01*
X13845000Y-15958952D01*
X13854524Y-15911333D01*
X13854524Y-15873238D01*
X13845000Y-15825619D01*
X13835476Y-15797048D01*
X13825952Y-15778000D01*
X13806905Y-15749428D01*
X13797381Y-15739905D01*
D15*
X8823285Y-16170284D02*
X8823285Y-16113715D01*
X8766716Y-16113715D01*
X8766716Y-16170284D01*
X8823285Y-16170284D01*
D11*
X9130714Y-16032476D02*
X9149762Y-16032476D01*
X9168810Y-16042000D01*
X9178333Y-16051524D01*
X9187857Y-16070571D01*
X9197381Y-16108667D01*
X9197381Y-16156286D01*
X9187857Y-16194381D01*
X9178333Y-16213428D01*
X9168810Y-16222952D01*
X9149762Y-16232476D01*
X9130714Y-16232476D01*
X9111667Y-16222952D01*
X9102143Y-16213428D01*
X9092619Y-16194381D01*
X9083095Y-16156286D01*
X9083095Y-16108667D01*
X9092619Y-16070571D01*
X9102143Y-16051524D01*
X9111667Y-16042000D01*
X9130714Y-16032476D01*
X9283095Y-16213428D02*
X9292619Y-16222952D01*
X9283095Y-16232476D01*
X9273571Y-16222952D01*
X9283095Y-16213428D01*
X9283095Y-16232476D01*
X9406905Y-16118190D02*
X9387857Y-16108667D01*
X9378333Y-16099143D01*
X9368810Y-16080095D01*
X9368810Y-16070571D01*
X9378333Y-16051524D01*
X9387857Y-16042000D01*
X9406905Y-16032476D01*
X9445000Y-16032476D01*
X9464048Y-16042000D01*
X9473571Y-16051524D01*
X9483095Y-16070571D01*
X9483095Y-16080095D01*
X9473571Y-16099143D01*
X9464048Y-16108667D01*
X9445000Y-16118190D01*
X9406905Y-16118190D01*
X9387857Y-16127714D01*
X9378333Y-16137238D01*
X9368810Y-16156286D01*
X9368810Y-16194381D01*
X9378333Y-16213428D01*
X9387857Y-16222952D01*
X9406905Y-16232476D01*
X9445000Y-16232476D01*
X9464048Y-16222952D01*
X9473571Y-16213428D01*
X9483095Y-16194381D01*
X9483095Y-16156286D01*
X9473571Y-16137238D01*
X9464048Y-16127714D01*
X9445000Y-16118190D01*
X9606905Y-16032476D02*
X9625952Y-16032476D01*
X9645000Y-16042000D01*
X9654524Y-16051524D01*
X9664048Y-16070571D01*
X9673571Y-16108667D01*
X9673571Y-16156286D01*
X9664048Y-16194381D01*
X9654524Y-16213428D01*
X9645000Y-16222952D01*
X9625952Y-16232476D01*
X9606905Y-16232476D01*
X9587857Y-16222952D01*
X9578333Y-16213428D01*
X9568810Y-16194381D01*
X9559286Y-16156286D01*
X9559286Y-16108667D01*
X9568810Y-16070571D01*
X9578333Y-16051524D01*
X9587857Y-16042000D01*
X9606905Y-16032476D01*
X9797381Y-16032476D02*
X9816429Y-16032476D01*
X9835476Y-16042000D01*
X9845000Y-16051524D01*
X9854524Y-16070571D01*
X9864048Y-16108667D01*
X9864048Y-16156286D01*
X9854524Y-16194381D01*
X9845000Y-16213428D01*
X9835476Y-16222952D01*
X9816429Y-16232476D01*
X9797381Y-16232476D01*
X9778333Y-16222952D01*
X9768810Y-16213428D01*
X9759286Y-16194381D01*
X9749762Y-16156286D01*
X9749762Y-16108667D01*
X9759286Y-16070571D01*
X9768810Y-16051524D01*
X9778333Y-16042000D01*
X9797381Y-16032476D01*
X9949762Y-16232476D02*
X9949762Y-16099143D01*
X9949762Y-16118190D02*
X9959286Y-16108667D01*
X9978333Y-16099143D01*
X10006905Y-16099143D01*
X10025952Y-16108667D01*
X10035476Y-16127714D01*
X10035476Y-16232476D01*
X10035476Y-16127714D02*
X10045000Y-16108667D01*
X10064048Y-16099143D01*
X10092619Y-16099143D01*
X10111667Y-16108667D01*
X10121190Y-16127714D01*
X10121190Y-16232476D01*
X10216429Y-16232476D02*
X10216429Y-16099143D01*
X10216429Y-16118190D02*
X10225952Y-16108667D01*
X10245000Y-16099143D01*
X10273571Y-16099143D01*
X10292619Y-16108667D01*
X10302143Y-16127714D01*
X10302143Y-16232476D01*
X10302143Y-16127714D02*
X10311667Y-16108667D01*
X10330714Y-16099143D01*
X10359286Y-16099143D01*
X10378333Y-16108667D01*
X10387857Y-16127714D01*
X10387857Y-16232476D01*
X10778333Y-16022952D02*
X10606905Y-16280095D01*
X11035476Y-16032476D02*
X11054524Y-16032476D01*
X11073571Y-16042000D01*
X11083095Y-16051524D01*
X11092619Y-16070571D01*
X11102143Y-16108667D01*
X11102143Y-16156286D01*
X11092619Y-16194381D01*
X11083095Y-16213428D01*
X11073571Y-16222952D01*
X11054524Y-16232476D01*
X11035476Y-16232476D01*
X11016429Y-16222952D01*
X11006905Y-16213428D01*
X10997381Y-16194381D01*
X10987857Y-16156286D01*
X10987857Y-16108667D01*
X10997381Y-16070571D01*
X11006905Y-16051524D01*
X11016429Y-16042000D01*
X11035476Y-16032476D01*
X11187857Y-16213428D02*
X11197381Y-16222952D01*
X11187857Y-16232476D01*
X11178333Y-16222952D01*
X11187857Y-16213428D01*
X11187857Y-16232476D01*
X11321190Y-16032476D02*
X11340238Y-16032476D01*
X11359286Y-16042000D01*
X11368809Y-16051524D01*
X11378333Y-16070571D01*
X11387857Y-16108667D01*
X11387857Y-16156286D01*
X11378333Y-16194381D01*
X11368809Y-16213428D01*
X11359286Y-16222952D01*
X11340238Y-16232476D01*
X11321190Y-16232476D01*
X11302143Y-16222952D01*
X11292619Y-16213428D01*
X11283095Y-16194381D01*
X11273571Y-16156286D01*
X11273571Y-16108667D01*
X11283095Y-16070571D01*
X11292619Y-16051524D01*
X11302143Y-16042000D01*
X11321190Y-16032476D01*
X11454524Y-16032476D02*
X11578333Y-16032476D01*
X11511667Y-16108667D01*
X11540238Y-16108667D01*
X11559286Y-16118190D01*
X11568809Y-16127714D01*
X11578333Y-16146762D01*
X11578333Y-16194381D01*
X11568809Y-16213428D01*
X11559286Y-16222952D01*
X11540238Y-16232476D01*
X11483095Y-16232476D01*
X11464048Y-16222952D01*
X11454524Y-16213428D01*
X11768809Y-16232476D02*
X11654524Y-16232476D01*
X11711667Y-16232476D02*
X11711667Y-16032476D01*
X11692619Y-16061048D01*
X11673571Y-16080095D01*
X11654524Y-16089619D01*
X11949762Y-16032476D02*
X11854524Y-16032476D01*
X11845000Y-16127714D01*
X11854524Y-16118190D01*
X11873571Y-16108667D01*
X11921190Y-16108667D01*
X11940238Y-16118190D01*
X11949762Y-16127714D01*
X11959286Y-16146762D01*
X11959286Y-16194381D01*
X11949762Y-16213428D01*
X11940238Y-16222952D01*
X11921190Y-16232476D01*
X11873571Y-16232476D01*
X11854524Y-16222952D01*
X11845000Y-16213428D01*
X12035476Y-16032476D02*
X12035476Y-16070571D01*
X12111667Y-16032476D02*
X12111667Y-16070571D01*
X12406905Y-16308667D02*
X12397381Y-16299143D01*
X12378333Y-16270571D01*
X12368809Y-16251524D01*
X12359286Y-16222952D01*
X12349762Y-16175333D01*
X12349762Y-16137238D01*
X12359286Y-16089619D01*
X12368809Y-16061048D01*
X12378333Y-16042000D01*
X12397381Y-16013428D01*
X12406905Y-16003905D01*
X12473571Y-16051524D02*
X12483095Y-16042000D01*
X12502143Y-16032476D01*
X12549762Y-16032476D01*
X12568809Y-16042000D01*
X12578333Y-16051524D01*
X12587857Y-16070571D01*
X12587857Y-16089619D01*
X12578333Y-16118190D01*
X12464048Y-16232476D01*
X12587857Y-16232476D01*
X12825952Y-16232476D02*
X12825952Y-16032476D01*
X12911667Y-16232476D02*
X12911667Y-16127714D01*
X12902143Y-16108667D01*
X12883095Y-16099143D01*
X12854524Y-16099143D01*
X12835476Y-16108667D01*
X12825952Y-16118190D01*
X13035476Y-16232476D02*
X13016428Y-16222952D01*
X13006905Y-16213428D01*
X12997381Y-16194381D01*
X12997381Y-16137238D01*
X13006905Y-16118190D01*
X13016428Y-16108667D01*
X13035476Y-16099143D01*
X13064048Y-16099143D01*
X13083095Y-16108667D01*
X13092619Y-16118190D01*
X13102143Y-16137238D01*
X13102143Y-16194381D01*
X13092619Y-16213428D01*
X13083095Y-16222952D01*
X13064048Y-16232476D01*
X13035476Y-16232476D01*
X13216428Y-16232476D02*
X13197381Y-16222952D01*
X13187857Y-16203905D01*
X13187857Y-16032476D01*
X13368809Y-16222952D02*
X13349762Y-16232476D01*
X13311667Y-16232476D01*
X13292619Y-16222952D01*
X13283095Y-16203905D01*
X13283095Y-16127714D01*
X13292619Y-16108667D01*
X13311667Y-16099143D01*
X13349762Y-16099143D01*
X13368809Y-16108667D01*
X13378333Y-16127714D01*
X13378333Y-16146762D01*
X13283095Y-16165809D01*
X13454524Y-16222952D02*
X13473571Y-16232476D01*
X13511667Y-16232476D01*
X13530714Y-16222952D01*
X13540238Y-16203905D01*
X13540238Y-16194381D01*
X13530714Y-16175333D01*
X13511667Y-16165809D01*
X13483095Y-16165809D01*
X13464048Y-16156286D01*
X13454524Y-16137238D01*
X13454524Y-16127714D01*
X13464048Y-16108667D01*
X13483095Y-16099143D01*
X13511667Y-16099143D01*
X13530714Y-16108667D01*
X13606905Y-16308667D02*
X13616428Y-16299143D01*
X13635476Y-16270571D01*
X13645000Y-16251524D01*
X13654524Y-16222952D01*
X13664048Y-16175333D01*
X13664048Y-16137238D01*
X13654524Y-16089619D01*
X13645000Y-16061048D01*
X13635476Y-16042000D01*
X13616428Y-16013428D01*
X13606905Y-16003905D01*
D16*
X8785000Y-16456000D02*
X8835000Y-16406000D01*
X8785000Y-16356000D01*
X8735000Y-16406000D01*
X8785000Y-16456000D01*
D11*
X9197381Y-16496476D02*
X9083095Y-16496476D01*
X9140238Y-16496476D02*
X9140238Y-16296476D01*
X9121190Y-16325048D01*
X9102143Y-16344095D01*
X9083095Y-16353619D01*
X9283095Y-16477428D02*
X9292619Y-16486952D01*
X9283095Y-16496476D01*
X9273571Y-16486952D01*
X9283095Y-16477428D01*
X9283095Y-16496476D01*
X9416429Y-16296476D02*
X9435476Y-16296476D01*
X9454524Y-16306000D01*
X9464048Y-16315524D01*
X9473571Y-16334571D01*
X9483095Y-16372667D01*
X9483095Y-16420286D01*
X9473571Y-16458381D01*
X9464048Y-16477428D01*
X9454524Y-16486952D01*
X9435476Y-16496476D01*
X9416429Y-16496476D01*
X9397381Y-16486952D01*
X9387857Y-16477428D01*
X9378333Y-16458381D01*
X9368810Y-16420286D01*
X9368810Y-16372667D01*
X9378333Y-16334571D01*
X9387857Y-16315524D01*
X9397381Y-16306000D01*
X9416429Y-16296476D01*
X9606905Y-16296476D02*
X9625952Y-16296476D01*
X9645000Y-16306000D01*
X9654524Y-16315524D01*
X9664048Y-16334571D01*
X9673571Y-16372667D01*
X9673571Y-16420286D01*
X9664048Y-16458381D01*
X9654524Y-16477428D01*
X9645000Y-16486952D01*
X9625952Y-16496476D01*
X9606905Y-16496476D01*
X9587857Y-16486952D01*
X9578333Y-16477428D01*
X9568810Y-16458381D01*
X9559286Y-16420286D01*
X9559286Y-16372667D01*
X9568810Y-16334571D01*
X9578333Y-16315524D01*
X9587857Y-16306000D01*
X9606905Y-16296476D01*
X9797381Y-16296476D02*
X9816429Y-16296476D01*
X9835476Y-16306000D01*
X9845000Y-16315524D01*
X9854524Y-16334571D01*
X9864048Y-16372667D01*
X9864048Y-16420286D01*
X9854524Y-16458381D01*
X9845000Y-16477428D01*
X9835476Y-16486952D01*
X9816429Y-16496476D01*
X9797381Y-16496476D01*
X9778333Y-16486952D01*
X9768810Y-16477428D01*
X9759286Y-16458381D01*
X9749762Y-16420286D01*
X9749762Y-16372667D01*
X9759286Y-16334571D01*
X9768810Y-16315524D01*
X9778333Y-16306000D01*
X9797381Y-16296476D01*
X9949762Y-16496476D02*
X9949762Y-16363143D01*
X9949762Y-16382190D02*
X9959286Y-16372667D01*
X9978333Y-16363143D01*
X10006905Y-16363143D01*
X10025952Y-16372667D01*
X10035476Y-16391714D01*
X10035476Y-16496476D01*
X10035476Y-16391714D02*
X10045000Y-16372667D01*
X10064048Y-16363143D01*
X10092619Y-16363143D01*
X10111667Y-16372667D01*
X10121190Y-16391714D01*
X10121190Y-16496476D01*
X10216429Y-16496476D02*
X10216429Y-16363143D01*
X10216429Y-16382190D02*
X10225952Y-16372667D01*
X10245000Y-16363143D01*
X10273571Y-16363143D01*
X10292619Y-16372667D01*
X10302143Y-16391714D01*
X10302143Y-16496476D01*
X10302143Y-16391714D02*
X10311667Y-16372667D01*
X10330714Y-16363143D01*
X10359286Y-16363143D01*
X10378333Y-16372667D01*
X10387857Y-16391714D01*
X10387857Y-16496476D01*
X10778333Y-16286952D02*
X10606905Y-16544095D01*
X11035476Y-16296476D02*
X11054524Y-16296476D01*
X11073571Y-16306000D01*
X11083095Y-16315524D01*
X11092619Y-16334571D01*
X11102143Y-16372667D01*
X11102143Y-16420286D01*
X11092619Y-16458381D01*
X11083095Y-16477428D01*
X11073571Y-16486952D01*
X11054524Y-16496476D01*
X11035476Y-16496476D01*
X11016429Y-16486952D01*
X11006905Y-16477428D01*
X10997381Y-16458381D01*
X10987857Y-16420286D01*
X10987857Y-16372667D01*
X10997381Y-16334571D01*
X11006905Y-16315524D01*
X11016429Y-16306000D01*
X11035476Y-16296476D01*
X11187857Y-16477428D02*
X11197381Y-16486952D01*
X11187857Y-16496476D01*
X11178333Y-16486952D01*
X11187857Y-16477428D01*
X11187857Y-16496476D01*
X11321190Y-16296476D02*
X11340238Y-16296476D01*
X11359286Y-16306000D01*
X11368809Y-16315524D01*
X11378333Y-16334571D01*
X11387857Y-16372667D01*
X11387857Y-16420286D01*
X11378333Y-16458381D01*
X11368809Y-16477428D01*
X11359286Y-16486952D01*
X11340238Y-16496476D01*
X11321190Y-16496476D01*
X11302143Y-16486952D01*
X11292619Y-16477428D01*
X11283095Y-16458381D01*
X11273571Y-16420286D01*
X11273571Y-16372667D01*
X11283095Y-16334571D01*
X11292619Y-16315524D01*
X11302143Y-16306000D01*
X11321190Y-16296476D01*
X11454524Y-16296476D02*
X11578333Y-16296476D01*
X11511667Y-16372667D01*
X11540238Y-16372667D01*
X11559286Y-16382190D01*
X11568809Y-16391714D01*
X11578333Y-16410762D01*
X11578333Y-16458381D01*
X11568809Y-16477428D01*
X11559286Y-16486952D01*
X11540238Y-16496476D01*
X11483095Y-16496476D01*
X11464048Y-16486952D01*
X11454524Y-16477428D01*
X11673571Y-16496476D02*
X11711667Y-16496476D01*
X11730714Y-16486952D01*
X11740238Y-16477428D01*
X11759286Y-16448857D01*
X11768809Y-16410762D01*
X11768809Y-16334571D01*
X11759286Y-16315524D01*
X11749762Y-16306000D01*
X11730714Y-16296476D01*
X11692619Y-16296476D01*
X11673571Y-16306000D01*
X11664048Y-16315524D01*
X11654524Y-16334571D01*
X11654524Y-16382190D01*
X11664048Y-16401238D01*
X11673571Y-16410762D01*
X11692619Y-16420286D01*
X11730714Y-16420286D01*
X11749762Y-16410762D01*
X11759286Y-16401238D01*
X11768809Y-16382190D01*
X11940238Y-16363143D02*
X11940238Y-16496476D01*
X11892619Y-16286952D02*
X11845000Y-16429809D01*
X11968809Y-16429809D01*
X12035476Y-16296476D02*
X12035476Y-16334571D01*
X12111667Y-16296476D02*
X12111667Y-16334571D01*
X12406905Y-16572667D02*
X12397381Y-16563143D01*
X12378333Y-16534571D01*
X12368809Y-16515524D01*
X12359286Y-16486952D01*
X12349762Y-16439333D01*
X12349762Y-16401238D01*
X12359286Y-16353619D01*
X12368809Y-16325048D01*
X12378333Y-16306000D01*
X12397381Y-16277428D01*
X12406905Y-16267905D01*
X12587857Y-16496476D02*
X12473571Y-16496476D01*
X12530714Y-16496476D02*
X12530714Y-16296476D01*
X12511667Y-16325048D01*
X12492619Y-16344095D01*
X12473571Y-16353619D01*
X12711667Y-16296476D02*
X12730714Y-16296476D01*
X12749762Y-16306000D01*
X12759286Y-16315524D01*
X12768809Y-16334571D01*
X12778333Y-16372667D01*
X12778333Y-16420286D01*
X12768809Y-16458381D01*
X12759286Y-16477428D01*
X12749762Y-16486952D01*
X12730714Y-16496476D01*
X12711667Y-16496476D01*
X12692619Y-16486952D01*
X12683095Y-16477428D01*
X12673571Y-16458381D01*
X12664048Y-16420286D01*
X12664048Y-16372667D01*
X12673571Y-16334571D01*
X12683095Y-16315524D01*
X12692619Y-16306000D01*
X12711667Y-16296476D01*
X13016428Y-16496476D02*
X13016428Y-16296476D01*
X13102143Y-16496476D02*
X13102143Y-16391714D01*
X13092619Y-16372667D01*
X13073571Y-16363143D01*
X13045000Y-16363143D01*
X13025952Y-16372667D01*
X13016428Y-16382190D01*
X13225952Y-16496476D02*
X13206905Y-16486952D01*
X13197381Y-16477428D01*
X13187857Y-16458381D01*
X13187857Y-16401238D01*
X13197381Y-16382190D01*
X13206905Y-16372667D01*
X13225952Y-16363143D01*
X13254524Y-16363143D01*
X13273571Y-16372667D01*
X13283095Y-16382190D01*
X13292619Y-16401238D01*
X13292619Y-16458381D01*
X13283095Y-16477428D01*
X13273571Y-16486952D01*
X13254524Y-16496476D01*
X13225952Y-16496476D01*
X13406905Y-16496476D02*
X13387857Y-16486952D01*
X13378333Y-16467905D01*
X13378333Y-16296476D01*
X13559286Y-16486952D02*
X13540238Y-16496476D01*
X13502143Y-16496476D01*
X13483095Y-16486952D01*
X13473571Y-16467905D01*
X13473571Y-16391714D01*
X13483095Y-16372667D01*
X13502143Y-16363143D01*
X13540238Y-16363143D01*
X13559286Y-16372667D01*
X13568809Y-16391714D01*
X13568809Y-16410762D01*
X13473571Y-16429809D01*
X13645000Y-16486952D02*
X13664048Y-16496476D01*
X13702143Y-16496476D01*
X13721190Y-16486952D01*
X13730714Y-16467905D01*
X13730714Y-16458381D01*
X13721190Y-16439333D01*
X13702143Y-16429809D01*
X13673571Y-16429809D01*
X13654524Y-16420286D01*
X13645000Y-16401238D01*
X13645000Y-16391714D01*
X13654524Y-16372667D01*
X13673571Y-16363143D01*
X13702143Y-16363143D01*
X13721190Y-16372667D01*
X13797381Y-16572667D02*
X13806905Y-16563143D01*
X13825952Y-16534571D01*
X13835476Y-16515524D01*
X13845000Y-16486952D01*
X13854524Y-16439333D01*
X13854524Y-16401238D01*
X13845000Y-16353619D01*
X13835476Y-16325048D01*
X13825952Y-16306000D01*
X13806905Y-16277428D01*
X13797381Y-16267905D01*
D17*
X8695046Y-16600023D02*
X8835000Y-16739977D01*
X8835000Y-16600023D02*
X8695046Y-16739977D01*
X8835000Y-16670000D02*
G75*
G03*
X8835000Y-16670000I-69977J0D01*
G01*
D11*
X9197381Y-16760476D02*
X9083095Y-16760476D01*
X9140238Y-16760476D02*
X9140238Y-16560476D01*
X9121190Y-16589048D01*
X9102143Y-16608095D01*
X9083095Y-16617619D01*
X9283095Y-16741428D02*
X9292619Y-16750952D01*
X9283095Y-16760476D01*
X9273571Y-16750952D01*
X9283095Y-16741428D01*
X9283095Y-16760476D01*
X9464048Y-16627143D02*
X9464048Y-16760476D01*
X9416429Y-16550952D02*
X9368810Y-16693809D01*
X9492619Y-16693809D01*
X9606905Y-16560476D02*
X9625952Y-16560476D01*
X9645000Y-16570000D01*
X9654524Y-16579524D01*
X9664048Y-16598571D01*
X9673571Y-16636667D01*
X9673571Y-16684286D01*
X9664048Y-16722381D01*
X9654524Y-16741428D01*
X9645000Y-16750952D01*
X9625952Y-16760476D01*
X9606905Y-16760476D01*
X9587857Y-16750952D01*
X9578333Y-16741428D01*
X9568810Y-16722381D01*
X9559286Y-16684286D01*
X9559286Y-16636667D01*
X9568810Y-16598571D01*
X9578333Y-16579524D01*
X9587857Y-16570000D01*
X9606905Y-16560476D01*
X9797381Y-16560476D02*
X9816429Y-16560476D01*
X9835476Y-16570000D01*
X9845000Y-16579524D01*
X9854524Y-16598571D01*
X9864048Y-16636667D01*
X9864048Y-16684286D01*
X9854524Y-16722381D01*
X9845000Y-16741428D01*
X9835476Y-16750952D01*
X9816429Y-16760476D01*
X9797381Y-16760476D01*
X9778333Y-16750952D01*
X9768810Y-16741428D01*
X9759286Y-16722381D01*
X9749762Y-16684286D01*
X9749762Y-16636667D01*
X9759286Y-16598571D01*
X9768810Y-16579524D01*
X9778333Y-16570000D01*
X9797381Y-16560476D01*
X9949762Y-16760476D02*
X9949762Y-16627143D01*
X9949762Y-16646190D02*
X9959286Y-16636667D01*
X9978333Y-16627143D01*
X10006905Y-16627143D01*
X10025952Y-16636667D01*
X10035476Y-16655714D01*
X10035476Y-16760476D01*
X10035476Y-16655714D02*
X10045000Y-16636667D01*
X10064048Y-16627143D01*
X10092619Y-16627143D01*
X10111667Y-16636667D01*
X10121190Y-16655714D01*
X10121190Y-16760476D01*
X10216429Y-16760476D02*
X10216429Y-16627143D01*
X10216429Y-16646190D02*
X10225952Y-16636667D01*
X10245000Y-16627143D01*
X10273571Y-16627143D01*
X10292619Y-16636667D01*
X10302143Y-16655714D01*
X10302143Y-16760476D01*
X10302143Y-16655714D02*
X10311667Y-16636667D01*
X10330714Y-16627143D01*
X10359286Y-16627143D01*
X10378333Y-16636667D01*
X10387857Y-16655714D01*
X10387857Y-16760476D01*
X10778333Y-16550952D02*
X10606905Y-16808095D01*
X11035476Y-16560476D02*
X11054524Y-16560476D01*
X11073571Y-16570000D01*
X11083095Y-16579524D01*
X11092619Y-16598571D01*
X11102143Y-16636667D01*
X11102143Y-16684286D01*
X11092619Y-16722381D01*
X11083095Y-16741428D01*
X11073571Y-16750952D01*
X11054524Y-16760476D01*
X11035476Y-16760476D01*
X11016429Y-16750952D01*
X11006905Y-16741428D01*
X10997381Y-16722381D01*
X10987857Y-16684286D01*
X10987857Y-16636667D01*
X10997381Y-16598571D01*
X11006905Y-16579524D01*
X11016429Y-16570000D01*
X11035476Y-16560476D01*
X11187857Y-16741428D02*
X11197381Y-16750952D01*
X11187857Y-16760476D01*
X11178333Y-16750952D01*
X11187857Y-16741428D01*
X11187857Y-16760476D01*
X11321190Y-16560476D02*
X11340238Y-16560476D01*
X11359286Y-16570000D01*
X11368809Y-16579524D01*
X11378333Y-16598571D01*
X11387857Y-16636667D01*
X11387857Y-16684286D01*
X11378333Y-16722381D01*
X11368809Y-16741428D01*
X11359286Y-16750952D01*
X11340238Y-16760476D01*
X11321190Y-16760476D01*
X11302143Y-16750952D01*
X11292619Y-16741428D01*
X11283095Y-16722381D01*
X11273571Y-16684286D01*
X11273571Y-16636667D01*
X11283095Y-16598571D01*
X11292619Y-16579524D01*
X11302143Y-16570000D01*
X11321190Y-16560476D01*
X11568809Y-16560476D02*
X11473571Y-16560476D01*
X11464048Y-16655714D01*
X11473571Y-16646190D01*
X11492619Y-16636667D01*
X11540238Y-16636667D01*
X11559286Y-16646190D01*
X11568809Y-16655714D01*
X11578333Y-16674762D01*
X11578333Y-16722381D01*
X11568809Y-16741428D01*
X11559286Y-16750952D01*
X11540238Y-16760476D01*
X11492619Y-16760476D01*
X11473571Y-16750952D01*
X11464048Y-16741428D01*
X11759286Y-16560476D02*
X11664048Y-16560476D01*
X11654524Y-16655714D01*
X11664048Y-16646190D01*
X11683095Y-16636667D01*
X11730714Y-16636667D01*
X11749762Y-16646190D01*
X11759286Y-16655714D01*
X11768809Y-16674762D01*
X11768809Y-16722381D01*
X11759286Y-16741428D01*
X11749762Y-16750952D01*
X11730714Y-16760476D01*
X11683095Y-16760476D01*
X11664048Y-16750952D01*
X11654524Y-16741428D01*
X11959286Y-16760476D02*
X11845000Y-16760476D01*
X11902143Y-16760476D02*
X11902143Y-16560476D01*
X11883095Y-16589048D01*
X11864048Y-16608095D01*
X11845000Y-16617619D01*
X12035476Y-16560476D02*
X12035476Y-16598571D01*
X12111667Y-16560476D02*
X12111667Y-16598571D01*
X12406905Y-16836667D02*
X12397381Y-16827143D01*
X12378333Y-16798571D01*
X12368809Y-16779524D01*
X12359286Y-16750952D01*
X12349762Y-16703333D01*
X12349762Y-16665238D01*
X12359286Y-16617619D01*
X12368809Y-16589048D01*
X12378333Y-16570000D01*
X12397381Y-16541428D01*
X12406905Y-16531905D01*
X12473571Y-16579524D02*
X12483095Y-16570000D01*
X12502143Y-16560476D01*
X12549762Y-16560476D01*
X12568809Y-16570000D01*
X12578333Y-16579524D01*
X12587857Y-16598571D01*
X12587857Y-16617619D01*
X12578333Y-16646190D01*
X12464048Y-16760476D01*
X12587857Y-16760476D01*
X12825952Y-16760476D02*
X12825952Y-16560476D01*
X12911667Y-16760476D02*
X12911667Y-16655714D01*
X12902143Y-16636667D01*
X12883095Y-16627143D01*
X12854524Y-16627143D01*
X12835476Y-16636667D01*
X12825952Y-16646190D01*
X13035476Y-16760476D02*
X13016428Y-16750952D01*
X13006905Y-16741428D01*
X12997381Y-16722381D01*
X12997381Y-16665238D01*
X13006905Y-16646190D01*
X13016428Y-16636667D01*
X13035476Y-16627143D01*
X13064048Y-16627143D01*
X13083095Y-16636667D01*
X13092619Y-16646190D01*
X13102143Y-16665238D01*
X13102143Y-16722381D01*
X13092619Y-16741428D01*
X13083095Y-16750952D01*
X13064048Y-16760476D01*
X13035476Y-16760476D01*
X13216428Y-16760476D02*
X13197381Y-16750952D01*
X13187857Y-16731905D01*
X13187857Y-16560476D01*
X13368809Y-16750952D02*
X13349762Y-16760476D01*
X13311667Y-16760476D01*
X13292619Y-16750952D01*
X13283095Y-16731905D01*
X13283095Y-16655714D01*
X13292619Y-16636667D01*
X13311667Y-16627143D01*
X13349762Y-16627143D01*
X13368809Y-16636667D01*
X13378333Y-16655714D01*
X13378333Y-16674762D01*
X13283095Y-16693809D01*
X13454524Y-16750952D02*
X13473571Y-16760476D01*
X13511667Y-16760476D01*
X13530714Y-16750952D01*
X13540238Y-16731905D01*
X13540238Y-16722381D01*
X13530714Y-16703333D01*
X13511667Y-16693809D01*
X13483095Y-16693809D01*
X13464048Y-16684286D01*
X13454524Y-16665238D01*
X13454524Y-16655714D01*
X13464048Y-16636667D01*
X13483095Y-16627143D01*
X13511667Y-16627143D01*
X13530714Y-16636667D01*
X13606905Y-16836667D02*
X13616428Y-16827143D01*
X13635476Y-16798571D01*
X13645000Y-16779524D01*
X13654524Y-16750952D01*
X13664048Y-16703333D01*
X13664048Y-16665238D01*
X13654524Y-16617619D01*
X13645000Y-16589048D01*
X13635476Y-16570000D01*
X13616428Y-16541428D01*
X13606905Y-16531905D01*
M02*
