G04 #@! TF.GenerationSoftware,KiCad,Pcbnew,(6.0.2)*
G04 #@! TF.CreationDate,2022-04-01T11:32:24+02:00*
G04 #@! TF.ProjectId,iot node,696f7420-6e6f-4646-952e-6b696361645f,rev?*
G04 #@! TF.SameCoordinates,Original*
G04 #@! TF.FileFunction,Legend,Bot*
G04 #@! TF.FilePolarity,Positive*
%FSLAX46Y46*%
G04 Gerber Fmt 4.6, Leading zero omitted, Abs format (unit mm)*
G04 Created by KiCad (PCBNEW (6.0.2)) date 2022-04-01 11:32:24*
%MOMM*%
%LPD*%
G01*
G04 APERTURE LIST*
%ADD10C,0.150000*%
%ADD11C,0.254000*%
%ADD12C,0.120000*%
%ADD13C,0.100000*%
%ADD14C,0.200000*%
%ADD15C,2.100000*%
%ADD16C,1.200000*%
%ADD17C,1.400000*%
%ADD18O,4.198620X2.098040*%
%ADD19R,1.700000X1.700000*%
%ADD20O,1.700000X1.700000*%
%ADD21R,1.300000X1.300000*%
%ADD22C,1.300000*%
G04 APERTURE END LIST*
D10*
X100003619Y-133011904D02*
X99194095Y-133011904D01*
X99098857Y-132964285D01*
X99051238Y-132916666D01*
X99003619Y-132821428D01*
X99003619Y-132630952D01*
X99051238Y-132535714D01*
X99098857Y-132488095D01*
X99194095Y-132440476D01*
X100003619Y-132440476D01*
X100003619Y-132059523D02*
X100003619Y-131440476D01*
X99622666Y-131773809D01*
X99622666Y-131630952D01*
X99575047Y-131535714D01*
X99527428Y-131488095D01*
X99432190Y-131440476D01*
X99194095Y-131440476D01*
X99098857Y-131488095D01*
X99051238Y-131535714D01*
X99003619Y-131630952D01*
X99003619Y-131916666D01*
X99051238Y-132011904D01*
X99098857Y-132059523D01*
X134372380Y-127616666D02*
X135086666Y-127616666D01*
X135229523Y-127569047D01*
X135324761Y-127473809D01*
X135372380Y-127330952D01*
X135372380Y-127235714D01*
X135372380Y-128616666D02*
X135372380Y-128045238D01*
X135372380Y-128330952D02*
X134372380Y-128330952D01*
X134515238Y-128235714D01*
X134610476Y-128140476D01*
X134658095Y-128045238D01*
D11*
X113868809Y-134659285D02*
X113687380Y-134719761D01*
X113626904Y-134780238D01*
X113566428Y-134901190D01*
X113566428Y-135082619D01*
X113626904Y-135203571D01*
X113687380Y-135264047D01*
X113808333Y-135324523D01*
X114292142Y-135324523D01*
X114292142Y-134054523D01*
X113868809Y-134054523D01*
X113747857Y-134115000D01*
X113687380Y-134175476D01*
X113626904Y-134296428D01*
X113626904Y-134417380D01*
X113687380Y-134538333D01*
X113747857Y-134598809D01*
X113868809Y-134659285D01*
X114292142Y-134659285D01*
X113143095Y-134054523D02*
X112296428Y-134054523D01*
X113143095Y-135324523D01*
X112296428Y-135324523D01*
X111147380Y-135324523D02*
X111873095Y-135324523D01*
X111510238Y-135324523D02*
X111510238Y-134054523D01*
X111631190Y-134235952D01*
X111752142Y-134356904D01*
X111873095Y-134417380D01*
D10*
X157533333Y-120522380D02*
X157533333Y-121236666D01*
X157580952Y-121379523D01*
X157676190Y-121474761D01*
X157819047Y-121522380D01*
X157914285Y-121522380D01*
X157104761Y-120617619D02*
X157057142Y-120570000D01*
X156961904Y-120522380D01*
X156723809Y-120522380D01*
X156628571Y-120570000D01*
X156580952Y-120617619D01*
X156533333Y-120712857D01*
X156533333Y-120808095D01*
X156580952Y-120950952D01*
X157152380Y-121522380D01*
X156533333Y-121522380D01*
D12*
X130880000Y-126620000D02*
X123200000Y-126620000D01*
X133480000Y-126620000D02*
X132150000Y-126620000D01*
X123200000Y-129280000D02*
X123200000Y-126620000D01*
X130880000Y-129280000D02*
X130880000Y-126620000D01*
X130880000Y-129280000D02*
X123200000Y-129280000D01*
X133480000Y-127950000D02*
X133480000Y-126620000D01*
D13*
X119200000Y-134750000D02*
X119200000Y-134750000D01*
D14*
X118750000Y-134750000D02*
X118750000Y-134750000D01*
D13*
X119300000Y-134750000D02*
X119300000Y-134750000D01*
D14*
X106750000Y-134750000D02*
X106750000Y-134750000D01*
X118750000Y-134750000D02*
G75*
G03*
X106750000Y-134750000I-6000000J0D01*
G01*
D13*
X119200000Y-134750000D02*
G75*
G03*
X119300000Y-134750000I50000J0D01*
G01*
X119300000Y-134750000D02*
G75*
G03*
X119200000Y-134750000I-50000J0D01*
G01*
D14*
X106750000Y-134750000D02*
G75*
G03*
X118750000Y-134750000I6000000J0D01*
G01*
D12*
X155870000Y-117030000D02*
X158530000Y-117030000D01*
X157200000Y-119630000D02*
X158530000Y-119630000D01*
X158530000Y-117030000D02*
X158530000Y-104270000D01*
X155870000Y-104270000D02*
X158530000Y-104270000D01*
X155870000Y-117030000D02*
X155870000Y-104270000D01*
X158530000Y-119630000D02*
X158530000Y-118300000D01*
%LPC*%
D15*
X159950000Y-100150000D03*
X91250000Y-100250000D03*
X118300000Y-143150000D03*
D16*
X95900000Y-129710000D03*
X93360000Y-132250000D03*
X95900000Y-134790000D03*
D17*
X105925000Y-107825000D03*
X110200000Y-125200000D03*
X110550000Y-121300000D03*
X105850000Y-111900000D03*
X113850000Y-121300000D03*
D18*
X93700000Y-114049360D03*
X93700000Y-109050640D03*
D17*
X117050000Y-121300000D03*
X141975000Y-122850000D03*
X147925000Y-127625000D03*
X148625000Y-119900000D03*
X139025000Y-132700000D03*
X106200000Y-125200000D03*
X144925000Y-119975000D03*
X147775000Y-111375000D03*
X107250000Y-121300000D03*
D19*
X132150000Y-127950000D03*
D20*
X129610000Y-127950000D03*
X127070000Y-127950000D03*
X124530000Y-127950000D03*
D21*
X116000000Y-134750000D03*
D22*
X109500000Y-134750000D03*
D19*
X157200000Y-118300000D03*
D20*
X157200000Y-115760000D03*
X157200000Y-113220000D03*
X157200000Y-110680000D03*
X157200000Y-108140000D03*
X157200000Y-105600000D03*
M02*
