G04 #@! TF.GenerationSoftware,KiCad,Pcbnew,(6.0.2)*
G04 #@! TF.CreationDate,2022-04-01T11:32:24+02:00*
G04 #@! TF.ProjectId,iot node,696f7420-6e6f-4646-952e-6b696361645f,rev?*
G04 #@! TF.SameCoordinates,Original*
G04 #@! TF.FileFunction,Legend,Top*
G04 #@! TF.FilePolarity,Positive*
%FSLAX46Y46*%
G04 Gerber Fmt 4.6, Leading zero omitted, Abs format (unit mm)*
G04 Created by KiCad (PCBNEW (6.0.2)) date 2022-04-01 11:32:24*
%MOMM*%
%LPD*%
G01*
G04 APERTURE LIST*
G04 Aperture macros list*
%AMRoundRect*
0 Rectangle with rounded corners*
0 $1 Rounding radius*
0 $2 $3 $4 $5 $6 $7 $8 $9 X,Y pos of 4 corners*
0 Add a 4 corners polygon primitive as box body*
4,1,4,$2,$3,$4,$5,$6,$7,$8,$9,$2,$3,0*
0 Add four circle primitives for the rounded corners*
1,1,$1+$1,$2,$3*
1,1,$1+$1,$4,$5*
1,1,$1+$1,$6,$7*
1,1,$1+$1,$8,$9*
0 Add four rect primitives between the rounded corners*
20,1,$1+$1,$2,$3,$4,$5,0*
20,1,$1+$1,$4,$5,$6,$7,0*
20,1,$1+$1,$6,$7,$8,$9,0*
20,1,$1+$1,$8,$9,$2,$3,0*%
G04 Aperture macros list end*
%ADD10C,0.150000*%
%ADD11C,0.300000*%
%ADD12C,0.228600*%
%ADD13C,0.120000*%
%ADD14C,0.127000*%
%ADD15C,0.200000*%
%ADD16C,0.152400*%
%ADD17C,0.100000*%
%ADD18C,1.200000*%
%ADD19C,2.100000*%
%ADD20C,1.400000*%
%ADD21R,1.500000X0.900000*%
%ADD22R,0.700000X0.700000*%
%ADD23RoundRect,0.030000X-0.220000X0.220000X-0.220000X-0.220000X0.220000X-0.220000X0.220000X0.220000X0*%
%ADD24R,1.981200X0.558800*%
%ADD25RoundRect,0.250000X0.350000X0.450000X-0.350000X0.450000X-0.350000X-0.450000X0.350000X-0.450000X0*%
%ADD26RoundRect,0.250000X0.475000X-0.337500X0.475000X0.337500X-0.475000X0.337500X-0.475000X-0.337500X0*%
%ADD27RoundRect,0.250000X-0.337500X-0.475000X0.337500X-0.475000X0.337500X0.475000X-0.337500X0.475000X0*%
%ADD28R,1.500000X2.300000*%
%ADD29R,2.300000X1.500000*%
%ADD30O,4.198620X2.098040*%
%ADD31RoundRect,0.250000X0.325000X0.450000X-0.325000X0.450000X-0.325000X-0.450000X0.325000X-0.450000X0*%
%ADD32RoundRect,0.250000X-0.350000X-0.450000X0.350000X-0.450000X0.350000X0.450000X-0.350000X0.450000X0*%
%ADD33RoundRect,0.250000X-0.475000X0.337500X-0.475000X-0.337500X0.475000X-0.337500X0.475000X0.337500X0*%
%ADD34RoundRect,0.250000X0.450000X-0.350000X0.450000X0.350000X-0.450000X0.350000X-0.450000X-0.350000X0*%
%ADD35RoundRect,0.250000X0.337500X0.475000X-0.337500X0.475000X-0.337500X-0.475000X0.337500X-0.475000X0*%
%ADD36R,1.700000X1.700000*%
%ADD37O,1.700000X1.700000*%
%ADD38R,1.300000X1.300000*%
%ADD39C,1.300000*%
G04 APERTURE END LIST*
D10*
X139080952Y-145652380D02*
X139080952Y-144652380D01*
X139700000Y-145652380D02*
X139604761Y-145604761D01*
X139557142Y-145557142D01*
X139509523Y-145461904D01*
X139509523Y-145176190D01*
X139557142Y-145080952D01*
X139604761Y-145033333D01*
X139700000Y-144985714D01*
X139842857Y-144985714D01*
X139938095Y-145033333D01*
X139985714Y-145080952D01*
X140033333Y-145176190D01*
X140033333Y-145461904D01*
X139985714Y-145557142D01*
X139938095Y-145604761D01*
X139842857Y-145652380D01*
X139700000Y-145652380D01*
X140319047Y-144652380D02*
X140890476Y-144652380D01*
X140604761Y-145652380D02*
X140604761Y-144652380D01*
X141985714Y-144985714D02*
X141985714Y-145652380D01*
X141985714Y-145080952D02*
X142033333Y-145033333D01*
X142128571Y-144985714D01*
X142271428Y-144985714D01*
X142366666Y-145033333D01*
X142414285Y-145128571D01*
X142414285Y-145652380D01*
X143033333Y-145652380D02*
X142938095Y-145604761D01*
X142890476Y-145557142D01*
X142842857Y-145461904D01*
X142842857Y-145176190D01*
X142890476Y-145080952D01*
X142938095Y-145033333D01*
X143033333Y-144985714D01*
X143176190Y-144985714D01*
X143271428Y-145033333D01*
X143319047Y-145080952D01*
X143366666Y-145176190D01*
X143366666Y-145461904D01*
X143319047Y-145557142D01*
X143271428Y-145604761D01*
X143176190Y-145652380D01*
X143033333Y-145652380D01*
X144223809Y-145652380D02*
X144223809Y-144652380D01*
X144223809Y-145604761D02*
X144128571Y-145652380D01*
X143938095Y-145652380D01*
X143842857Y-145604761D01*
X143795238Y-145557142D01*
X143747619Y-145461904D01*
X143747619Y-145176190D01*
X143795238Y-145080952D01*
X143842857Y-145033333D01*
X143938095Y-144985714D01*
X144128571Y-144985714D01*
X144223809Y-145033333D01*
X145080952Y-145604761D02*
X144985714Y-145652380D01*
X144795238Y-145652380D01*
X144700000Y-145604761D01*
X144652380Y-145509523D01*
X144652380Y-145128571D01*
X144700000Y-145033333D01*
X144795238Y-144985714D01*
X144985714Y-144985714D01*
X145080952Y-145033333D01*
X145128571Y-145128571D01*
X145128571Y-145223809D01*
X144652380Y-145319047D01*
X145509523Y-145604761D02*
X145604761Y-145652380D01*
X145795238Y-145652380D01*
X145890476Y-145604761D01*
X145938095Y-145509523D01*
X145938095Y-145461904D01*
X145890476Y-145366666D01*
X145795238Y-145319047D01*
X145652380Y-145319047D01*
X145557142Y-145271428D01*
X145509523Y-145176190D01*
X145509523Y-145128571D01*
X145557142Y-145033333D01*
X145652380Y-144985714D01*
X145795238Y-144985714D01*
X145890476Y-145033333D01*
X146366666Y-145557142D02*
X146414285Y-145604761D01*
X146366666Y-145652380D01*
X146319047Y-145604761D01*
X146366666Y-145557142D01*
X146366666Y-145652380D01*
X146366666Y-145033333D02*
X146414285Y-145080952D01*
X146366666Y-145128571D01*
X146319047Y-145080952D01*
X146366666Y-145033333D01*
X146366666Y-145128571D01*
X147461904Y-144652380D02*
X148033333Y-144652380D01*
X147747619Y-145652380D02*
X147747619Y-144652380D01*
X148747619Y-145604761D02*
X148652380Y-145652380D01*
X148461904Y-145652380D01*
X148366666Y-145604761D01*
X148319047Y-145509523D01*
X148319047Y-145128571D01*
X148366666Y-145033333D01*
X148461904Y-144985714D01*
X148652380Y-144985714D01*
X148747619Y-145033333D01*
X148795238Y-145128571D01*
X148795238Y-145223809D01*
X148319047Y-145319047D01*
X149652380Y-145652380D02*
X149652380Y-145128571D01*
X149604761Y-145033333D01*
X149509523Y-144985714D01*
X149319047Y-144985714D01*
X149223809Y-145033333D01*
X149652380Y-145604761D02*
X149557142Y-145652380D01*
X149319047Y-145652380D01*
X149223809Y-145604761D01*
X149176190Y-145509523D01*
X149176190Y-145414285D01*
X149223809Y-145319047D01*
X149319047Y-145271428D01*
X149557142Y-145271428D01*
X149652380Y-145223809D01*
X150128571Y-145652380D02*
X150128571Y-144985714D01*
X150128571Y-145080952D02*
X150176190Y-145033333D01*
X150271428Y-144985714D01*
X150414285Y-144985714D01*
X150509523Y-145033333D01*
X150557142Y-145128571D01*
X150557142Y-145652380D01*
X150557142Y-145128571D02*
X150604761Y-145033333D01*
X150700000Y-144985714D01*
X150842857Y-144985714D01*
X150938095Y-145033333D01*
X150985714Y-145128571D01*
X150985714Y-145652380D01*
X152652380Y-145604761D02*
X152557142Y-145652380D01*
X152366666Y-145652380D01*
X152271428Y-145604761D01*
X152223809Y-145557142D01*
X152176190Y-145461904D01*
X152176190Y-145176190D01*
X152223809Y-145080952D01*
X152271428Y-145033333D01*
X152366666Y-144985714D01*
X152557142Y-144985714D01*
X152652380Y-145033333D01*
X153223809Y-145652380D02*
X153128571Y-145604761D01*
X153080952Y-145509523D01*
X153080952Y-144652380D01*
X153985714Y-145604761D02*
X153890476Y-145652380D01*
X153700000Y-145652380D01*
X153604761Y-145604761D01*
X153557142Y-145509523D01*
X153557142Y-145128571D01*
X153604761Y-145033333D01*
X153700000Y-144985714D01*
X153890476Y-144985714D01*
X153985714Y-145033333D01*
X154033333Y-145128571D01*
X154033333Y-145223809D01*
X153557142Y-145319047D01*
X154890476Y-145652380D02*
X154890476Y-145128571D01*
X154842857Y-145033333D01*
X154747619Y-144985714D01*
X154557142Y-144985714D01*
X154461904Y-145033333D01*
X154890476Y-145604761D02*
X154795238Y-145652380D01*
X154557142Y-145652380D01*
X154461904Y-145604761D01*
X154414285Y-145509523D01*
X154414285Y-145414285D01*
X154461904Y-145319047D01*
X154557142Y-145271428D01*
X154795238Y-145271428D01*
X154890476Y-145223809D01*
X155366666Y-144985714D02*
X155366666Y-145652380D01*
X155366666Y-145080952D02*
X155414285Y-145033333D01*
X155509523Y-144985714D01*
X155652380Y-144985714D01*
X155747619Y-145033333D01*
X155795238Y-145128571D01*
X155795238Y-145652380D01*
X157461904Y-145652380D02*
X157461904Y-145128571D01*
X157414285Y-145033333D01*
X157319047Y-144985714D01*
X157128571Y-144985714D01*
X157033333Y-145033333D01*
X157461904Y-145604761D02*
X157366666Y-145652380D01*
X157128571Y-145652380D01*
X157033333Y-145604761D01*
X156985714Y-145509523D01*
X156985714Y-145414285D01*
X157033333Y-145319047D01*
X157128571Y-145271428D01*
X157366666Y-145271428D01*
X157461904Y-145223809D01*
X157938095Y-145652380D02*
X157938095Y-144985714D01*
X157938095Y-144652380D02*
X157890476Y-144700000D01*
X157938095Y-144747619D01*
X157985714Y-144700000D01*
X157938095Y-144652380D01*
X157938095Y-144747619D01*
X158414285Y-145652380D02*
X158414285Y-144985714D01*
X158414285Y-145176190D02*
X158461904Y-145080952D01*
X158509523Y-145033333D01*
X158604761Y-144985714D01*
X158700000Y-144985714D01*
X159638095Y-110250000D02*
X159542857Y-110202380D01*
X159400000Y-110202380D01*
X159257142Y-110250000D01*
X159161904Y-110345238D01*
X159114285Y-110440476D01*
X159066666Y-110630952D01*
X159066666Y-110773809D01*
X159114285Y-110964285D01*
X159161904Y-111059523D01*
X159257142Y-111154761D01*
X159400000Y-111202380D01*
X159495238Y-111202380D01*
X159638095Y-111154761D01*
X159685714Y-111107142D01*
X159685714Y-110773809D01*
X159495238Y-110773809D01*
X160114285Y-111202380D02*
X160114285Y-110202380D01*
X160685714Y-111202380D01*
X160685714Y-110202380D01*
X161161904Y-111202380D02*
X161161904Y-110202380D01*
X161400000Y-110202380D01*
X161542857Y-110250000D01*
X161638095Y-110345238D01*
X161685714Y-110440476D01*
X161733333Y-110630952D01*
X161733333Y-110773809D01*
X161685714Y-110964285D01*
X161638095Y-111059523D01*
X161542857Y-111154761D01*
X161400000Y-111202380D01*
X161161904Y-111202380D01*
X159209523Y-113754761D02*
X159352380Y-113802380D01*
X159590476Y-113802380D01*
X159685714Y-113754761D01*
X159733333Y-113707142D01*
X159780952Y-113611904D01*
X159780952Y-113516666D01*
X159733333Y-113421428D01*
X159685714Y-113373809D01*
X159590476Y-113326190D01*
X159400000Y-113278571D01*
X159304761Y-113230952D01*
X159257142Y-113183333D01*
X159209523Y-113088095D01*
X159209523Y-112992857D01*
X159257142Y-112897619D01*
X159304761Y-112850000D01*
X159400000Y-112802380D01*
X159638095Y-112802380D01*
X159780952Y-112850000D01*
X160780952Y-113707142D02*
X160733333Y-113754761D01*
X160590476Y-113802380D01*
X160495238Y-113802380D01*
X160352380Y-113754761D01*
X160257142Y-113659523D01*
X160209523Y-113564285D01*
X160161904Y-113373809D01*
X160161904Y-113230952D01*
X160209523Y-113040476D01*
X160257142Y-112945238D01*
X160352380Y-112850000D01*
X160495238Y-112802380D01*
X160590476Y-112802380D01*
X160733333Y-112850000D01*
X160780952Y-112897619D01*
X161685714Y-113802380D02*
X161209523Y-113802380D01*
X161209523Y-112802380D01*
D11*
X120764285Y-139942857D02*
X120978571Y-140014285D01*
X121050000Y-140085714D01*
X121121428Y-140228571D01*
X121121428Y-140442857D01*
X121050000Y-140585714D01*
X120978571Y-140657142D01*
X120835714Y-140728571D01*
X120264285Y-140728571D01*
X120264285Y-139228571D01*
X120764285Y-139228571D01*
X120907142Y-139300000D01*
X120978571Y-139371428D01*
X121050000Y-139514285D01*
X121050000Y-139657142D01*
X120978571Y-139800000D01*
X120907142Y-139871428D01*
X120764285Y-139942857D01*
X120264285Y-139942857D01*
X122050000Y-139228571D02*
X122335714Y-139228571D01*
X122478571Y-139300000D01*
X122621428Y-139442857D01*
X122692857Y-139728571D01*
X122692857Y-140228571D01*
X122621428Y-140514285D01*
X122478571Y-140657142D01*
X122335714Y-140728571D01*
X122050000Y-140728571D01*
X121907142Y-140657142D01*
X121764285Y-140514285D01*
X121692857Y-140228571D01*
X121692857Y-139728571D01*
X121764285Y-139442857D01*
X121907142Y-139300000D01*
X122050000Y-139228571D01*
X123621428Y-139228571D02*
X123907142Y-139228571D01*
X124050000Y-139300000D01*
X124192857Y-139442857D01*
X124264285Y-139728571D01*
X124264285Y-140228571D01*
X124192857Y-140514285D01*
X124050000Y-140657142D01*
X123907142Y-140728571D01*
X123621428Y-140728571D01*
X123478571Y-140657142D01*
X123335714Y-140514285D01*
X123264285Y-140228571D01*
X123264285Y-139728571D01*
X123335714Y-139442857D01*
X123478571Y-139300000D01*
X123621428Y-139228571D01*
X124692857Y-139228571D02*
X125550000Y-139228571D01*
X125121428Y-140728571D02*
X125121428Y-139228571D01*
X123142857Y-133092857D02*
X123642857Y-133092857D01*
X123857142Y-133878571D02*
X123142857Y-133878571D01*
X123142857Y-132378571D01*
X123857142Y-132378571D01*
X124500000Y-133878571D02*
X124500000Y-132378571D01*
X125357142Y-133878571D01*
X125357142Y-132378571D01*
D10*
X159285714Y-119204761D02*
X159428571Y-119252380D01*
X159666666Y-119252380D01*
X159761904Y-119204761D01*
X159809523Y-119157142D01*
X159857142Y-119061904D01*
X159857142Y-118966666D01*
X159809523Y-118871428D01*
X159761904Y-118823809D01*
X159666666Y-118776190D01*
X159476190Y-118728571D01*
X159380952Y-118680952D01*
X159333333Y-118633333D01*
X159285714Y-118538095D01*
X159285714Y-118442857D01*
X159333333Y-118347619D01*
X159380952Y-118300000D01*
X159476190Y-118252380D01*
X159714285Y-118252380D01*
X159857142Y-118300000D01*
X160285714Y-119252380D02*
X160285714Y-118252380D01*
X160523809Y-118252380D01*
X160666666Y-118300000D01*
X160761904Y-118395238D01*
X160809523Y-118490476D01*
X160857142Y-118680952D01*
X160857142Y-118823809D01*
X160809523Y-119014285D01*
X160761904Y-119109523D01*
X160666666Y-119204761D01*
X160523809Y-119252380D01*
X160285714Y-119252380D01*
X161238095Y-118966666D02*
X161714285Y-118966666D01*
X161142857Y-119252380D02*
X161476190Y-118252380D01*
X161809523Y-119252380D01*
X159297619Y-105152380D02*
X159630952Y-106152380D01*
X159964285Y-105152380D01*
X160297619Y-105771428D02*
X161059523Y-105771428D01*
X160678571Y-106152380D02*
X160678571Y-105390476D01*
X113728571Y-144352380D02*
X113395238Y-143876190D01*
X113157142Y-144352380D02*
X113157142Y-143352380D01*
X113538095Y-143352380D01*
X113633333Y-143400000D01*
X113680952Y-143447619D01*
X113728571Y-143542857D01*
X113728571Y-143685714D01*
X113680952Y-143780952D01*
X113633333Y-143828571D01*
X113538095Y-143876190D01*
X113157142Y-143876190D01*
X114157142Y-143828571D02*
X114490476Y-143828571D01*
X114633333Y-144352380D02*
X114157142Y-144352380D01*
X114157142Y-143352380D01*
X114633333Y-143352380D01*
X115395238Y-143828571D02*
X115061904Y-143828571D01*
X115061904Y-144352380D02*
X115061904Y-143352380D01*
X115538095Y-143352380D01*
X104663095Y-109077380D02*
X105234523Y-109077380D01*
X104948809Y-110077380D02*
X104948809Y-109077380D01*
X105567857Y-110077380D02*
X105567857Y-109077380D01*
X105948809Y-109077380D01*
X106044047Y-109125000D01*
X106091666Y-109172619D01*
X106139285Y-109267857D01*
X106139285Y-109410714D01*
X106091666Y-109505952D01*
X106044047Y-109553571D01*
X105948809Y-109601190D01*
X105567857Y-109601190D01*
X107044047Y-109077380D02*
X106567857Y-109077380D01*
X106520238Y-109553571D01*
X106567857Y-109505952D01*
X106663095Y-109458333D01*
X106901190Y-109458333D01*
X106996428Y-109505952D01*
X107044047Y-109553571D01*
X107091666Y-109648809D01*
X107091666Y-109886904D01*
X107044047Y-109982142D01*
X106996428Y-110029761D01*
X106901190Y-110077380D01*
X106663095Y-110077380D01*
X106567857Y-110029761D01*
X106520238Y-109982142D01*
X108461904Y-126452380D02*
X109033333Y-126452380D01*
X108747619Y-127452380D02*
X108747619Y-126452380D01*
X109366666Y-127452380D02*
X109366666Y-126452380D01*
X109747619Y-126452380D01*
X109842857Y-126500000D01*
X109890476Y-126547619D01*
X109938095Y-126642857D01*
X109938095Y-126785714D01*
X109890476Y-126880952D01*
X109842857Y-126928571D01*
X109747619Y-126976190D01*
X109366666Y-126976190D01*
X110890476Y-127452380D02*
X110319047Y-127452380D01*
X110604761Y-127452380D02*
X110604761Y-126452380D01*
X110509523Y-126595238D01*
X110414285Y-126690476D01*
X110319047Y-126738095D01*
X111223809Y-126452380D02*
X111842857Y-126452380D01*
X111509523Y-126833333D01*
X111652380Y-126833333D01*
X111747619Y-126880952D01*
X111795238Y-126928571D01*
X111842857Y-127023809D01*
X111842857Y-127261904D01*
X111795238Y-127357142D01*
X111747619Y-127404761D01*
X111652380Y-127452380D01*
X111366666Y-127452380D01*
X111271428Y-127404761D01*
X111223809Y-127357142D01*
X118338095Y-102952380D02*
X118338095Y-103761904D01*
X118385714Y-103857142D01*
X118433333Y-103904761D01*
X118528571Y-103952380D01*
X118719047Y-103952380D01*
X118814285Y-103904761D01*
X118861904Y-103857142D01*
X118909523Y-103761904D01*
X118909523Y-102952380D01*
X119909523Y-103952380D02*
X119338095Y-103952380D01*
X119623809Y-103952380D02*
X119623809Y-102952380D01*
X119528571Y-103095238D01*
X119433333Y-103190476D01*
X119338095Y-103238095D01*
X125238095Y-106516666D02*
X125714285Y-106516666D01*
X125142857Y-106802380D02*
X125476190Y-105802380D01*
X125809523Y-106802380D01*
X126142857Y-106135714D02*
X126142857Y-106802380D01*
X126142857Y-106230952D02*
X126190476Y-106183333D01*
X126285714Y-106135714D01*
X126428571Y-106135714D01*
X126523809Y-106183333D01*
X126571428Y-106278571D01*
X126571428Y-106802380D01*
X126904761Y-106135714D02*
X127285714Y-106135714D01*
X127047619Y-105802380D02*
X127047619Y-106659523D01*
X127095238Y-106754761D01*
X127190476Y-106802380D01*
X127285714Y-106802380D01*
X128000000Y-106754761D02*
X127904761Y-106802380D01*
X127714285Y-106802380D01*
X127619047Y-106754761D01*
X127571428Y-106659523D01*
X127571428Y-106278571D01*
X127619047Y-106183333D01*
X127714285Y-106135714D01*
X127904761Y-106135714D01*
X128000000Y-106183333D01*
X128047619Y-106278571D01*
X128047619Y-106373809D01*
X127571428Y-106469047D01*
X128476190Y-106135714D02*
X128476190Y-106802380D01*
X128476190Y-106230952D02*
X128523809Y-106183333D01*
X128619047Y-106135714D01*
X128761904Y-106135714D01*
X128857142Y-106183333D01*
X128904761Y-106278571D01*
X128904761Y-106802380D01*
X129380952Y-106135714D02*
X129380952Y-106802380D01*
X129380952Y-106230952D02*
X129428571Y-106183333D01*
X129523809Y-106135714D01*
X129666666Y-106135714D01*
X129761904Y-106183333D01*
X129809523Y-106278571D01*
X129809523Y-106802380D01*
X130714285Y-106802380D02*
X130714285Y-106278571D01*
X130666666Y-106183333D01*
X130571428Y-106135714D01*
X130380952Y-106135714D01*
X130285714Y-106183333D01*
X130714285Y-106754761D02*
X130619047Y-106802380D01*
X130380952Y-106802380D01*
X130285714Y-106754761D01*
X130238095Y-106659523D01*
X130238095Y-106564285D01*
X130285714Y-106469047D01*
X130380952Y-106421428D01*
X130619047Y-106421428D01*
X130714285Y-106373809D01*
X131904761Y-106516666D02*
X132380952Y-106516666D01*
X131809523Y-106802380D02*
X132142857Y-105802380D01*
X132476190Y-106802380D01*
X132809523Y-106802380D02*
X132809523Y-106135714D01*
X132809523Y-106326190D02*
X132857142Y-106230952D01*
X132904761Y-106183333D01*
X133000000Y-106135714D01*
X133095238Y-106135714D01*
X133809523Y-106754761D02*
X133714285Y-106802380D01*
X133523809Y-106802380D01*
X133428571Y-106754761D01*
X133380952Y-106659523D01*
X133380952Y-106278571D01*
X133428571Y-106183333D01*
X133523809Y-106135714D01*
X133714285Y-106135714D01*
X133809523Y-106183333D01*
X133857142Y-106278571D01*
X133857142Y-106373809D01*
X133380952Y-106469047D01*
X134714285Y-106802380D02*
X134714285Y-106278571D01*
X134666666Y-106183333D01*
X134571428Y-106135714D01*
X134380952Y-106135714D01*
X134285714Y-106183333D01*
X134714285Y-106754761D02*
X134619047Y-106802380D01*
X134380952Y-106802380D01*
X134285714Y-106754761D01*
X134238095Y-106659523D01*
X134238095Y-106564285D01*
X134285714Y-106469047D01*
X134380952Y-106421428D01*
X134619047Y-106421428D01*
X134714285Y-106373809D01*
X149249907Y-116120277D02*
X149768773Y-116120277D01*
X149829816Y-116089755D01*
X149860337Y-116059234D01*
X149890859Y-115998191D01*
X149890859Y-115876105D01*
X149860337Y-115815062D01*
X149829816Y-115784540D01*
X149768773Y-115754019D01*
X149249907Y-115754019D01*
X149463558Y-115174110D02*
X149890859Y-115174110D01*
X149219385Y-115326717D02*
X149677208Y-115479325D01*
X149677208Y-115082545D01*
X110694836Y-104730338D02*
X110694836Y-106060953D01*
X110773107Y-106217496D01*
X110851379Y-106295767D01*
X111007922Y-106374039D01*
X111321008Y-106374039D01*
X111477551Y-106295767D01*
X111555822Y-106217496D01*
X111634094Y-106060953D01*
X111634094Y-104730338D01*
X112338537Y-104886880D02*
X112416808Y-104808609D01*
X112573351Y-104730338D01*
X112964709Y-104730338D01*
X113121252Y-104808609D01*
X113199523Y-104886880D01*
X113277795Y-105043423D01*
X113277795Y-105199966D01*
X113199523Y-105434781D01*
X112260265Y-106374039D01*
X113277795Y-106374039D01*
X109288095Y-122552380D02*
X109859523Y-122552380D01*
X109573809Y-123552380D02*
X109573809Y-122552380D01*
X110192857Y-123552380D02*
X110192857Y-122552380D01*
X110573809Y-122552380D01*
X110669047Y-122600000D01*
X110716666Y-122647619D01*
X110764285Y-122742857D01*
X110764285Y-122885714D01*
X110716666Y-122980952D01*
X110669047Y-123028571D01*
X110573809Y-123076190D01*
X110192857Y-123076190D01*
X111621428Y-122552380D02*
X111430952Y-122552380D01*
X111335714Y-122600000D01*
X111288095Y-122647619D01*
X111192857Y-122790476D01*
X111145238Y-122980952D01*
X111145238Y-123361904D01*
X111192857Y-123457142D01*
X111240476Y-123504761D01*
X111335714Y-123552380D01*
X111526190Y-123552380D01*
X111621428Y-123504761D01*
X111669047Y-123457142D01*
X111716666Y-123361904D01*
X111716666Y-123123809D01*
X111669047Y-123028571D01*
X111621428Y-122980952D01*
X111526190Y-122933333D01*
X111335714Y-122933333D01*
X111240476Y-122980952D01*
X111192857Y-123028571D01*
X111145238Y-123123809D01*
X146858333Y-133327380D02*
X146525000Y-132851190D01*
X146286904Y-133327380D02*
X146286904Y-132327380D01*
X146667857Y-132327380D01*
X146763095Y-132375000D01*
X146810714Y-132422619D01*
X146858333Y-132517857D01*
X146858333Y-132660714D01*
X146810714Y-132755952D01*
X146763095Y-132803571D01*
X146667857Y-132851190D01*
X146286904Y-132851190D01*
X147429761Y-132755952D02*
X147334523Y-132708333D01*
X147286904Y-132660714D01*
X147239285Y-132565476D01*
X147239285Y-132517857D01*
X147286904Y-132422619D01*
X147334523Y-132375000D01*
X147429761Y-132327380D01*
X147620238Y-132327380D01*
X147715476Y-132375000D01*
X147763095Y-132422619D01*
X147810714Y-132517857D01*
X147810714Y-132565476D01*
X147763095Y-132660714D01*
X147715476Y-132708333D01*
X147620238Y-132755952D01*
X147429761Y-132755952D01*
X147334523Y-132803571D01*
X147286904Y-132851190D01*
X147239285Y-132946428D01*
X147239285Y-133136904D01*
X147286904Y-133232142D01*
X147334523Y-133279761D01*
X147429761Y-133327380D01*
X147620238Y-133327380D01*
X147715476Y-133279761D01*
X147763095Y-133232142D01*
X147810714Y-133136904D01*
X147810714Y-132946428D01*
X147763095Y-132851190D01*
X147715476Y-132803571D01*
X147620238Y-132755952D01*
X112227142Y-116516666D02*
X112274761Y-116564285D01*
X112322380Y-116707142D01*
X112322380Y-116802380D01*
X112274761Y-116945238D01*
X112179523Y-117040476D01*
X112084285Y-117088095D01*
X111893809Y-117135714D01*
X111750952Y-117135714D01*
X111560476Y-117088095D01*
X111465238Y-117040476D01*
X111370000Y-116945238D01*
X111322380Y-116802380D01*
X111322380Y-116707142D01*
X111370000Y-116564285D01*
X111417619Y-116516666D01*
X111417619Y-116135714D02*
X111370000Y-116088095D01*
X111322380Y-115992857D01*
X111322380Y-115754761D01*
X111370000Y-115659523D01*
X111417619Y-115611904D01*
X111512857Y-115564285D01*
X111608095Y-115564285D01*
X111750952Y-115611904D01*
X112322380Y-116183333D01*
X112322380Y-115564285D01*
X150558333Y-107707142D02*
X150510714Y-107754761D01*
X150367857Y-107802380D01*
X150272619Y-107802380D01*
X150129761Y-107754761D01*
X150034523Y-107659523D01*
X149986904Y-107564285D01*
X149939285Y-107373809D01*
X149939285Y-107230952D01*
X149986904Y-107040476D01*
X150034523Y-106945238D01*
X150129761Y-106850000D01*
X150272619Y-106802380D01*
X150367857Y-106802380D01*
X150510714Y-106850000D01*
X150558333Y-106897619D01*
X150891666Y-106802380D02*
X151558333Y-106802380D01*
X151129761Y-107802380D01*
X104588095Y-113152380D02*
X105159523Y-113152380D01*
X104873809Y-114152380D02*
X104873809Y-113152380D01*
X105492857Y-114152380D02*
X105492857Y-113152380D01*
X105873809Y-113152380D01*
X105969047Y-113200000D01*
X106016666Y-113247619D01*
X106064285Y-113342857D01*
X106064285Y-113485714D01*
X106016666Y-113580952D01*
X105969047Y-113628571D01*
X105873809Y-113676190D01*
X105492857Y-113676190D01*
X106921428Y-113485714D02*
X106921428Y-114152380D01*
X106683333Y-113104761D02*
X106445238Y-113819047D01*
X107064285Y-113819047D01*
X154196909Y-131272266D02*
X154235004Y-131157980D01*
X154235004Y-130967504D01*
X154196909Y-130891314D01*
X154158814Y-130853219D01*
X154082623Y-130815123D01*
X154006433Y-130815123D01*
X153930242Y-130853219D01*
X153892147Y-130891314D01*
X153854052Y-130967504D01*
X153815957Y-131119885D01*
X153777861Y-131196076D01*
X153739766Y-131234171D01*
X153663576Y-131272266D01*
X153587385Y-131272266D01*
X153511195Y-131234171D01*
X153473100Y-131196076D01*
X153435004Y-131119885D01*
X153435004Y-130929409D01*
X153473100Y-130815123D01*
X153435004Y-130548457D02*
X154235004Y-130357980D01*
X153663576Y-130205600D01*
X154235004Y-130053219D01*
X153435004Y-129862742D01*
X153435004Y-129634171D02*
X153435004Y-129138933D01*
X153739766Y-129405600D01*
X153739766Y-129291314D01*
X153777861Y-129215123D01*
X153815957Y-129177028D01*
X153892147Y-129138933D01*
X154082623Y-129138933D01*
X154158814Y-129177028D01*
X154196909Y-129215123D01*
X154235004Y-129291314D01*
X154235004Y-129519885D01*
X154196909Y-129596076D01*
X154158814Y-129634171D01*
X98983333Y-110507142D02*
X98935714Y-110554761D01*
X98792857Y-110602380D01*
X98697619Y-110602380D01*
X98554761Y-110554761D01*
X98459523Y-110459523D01*
X98411904Y-110364285D01*
X98364285Y-110173809D01*
X98364285Y-110030952D01*
X98411904Y-109840476D01*
X98459523Y-109745238D01*
X98554761Y-109650000D01*
X98697619Y-109602380D01*
X98792857Y-109602380D01*
X98935714Y-109650000D01*
X98983333Y-109697619D01*
X99840476Y-109935714D02*
X99840476Y-110602380D01*
X99602380Y-109554761D02*
X99364285Y-110269047D01*
X99983333Y-110269047D01*
X104777142Y-116429166D02*
X104824761Y-116476785D01*
X104872380Y-116619642D01*
X104872380Y-116714880D01*
X104824761Y-116857738D01*
X104729523Y-116952976D01*
X104634285Y-117000595D01*
X104443809Y-117048214D01*
X104300952Y-117048214D01*
X104110476Y-117000595D01*
X104015238Y-116952976D01*
X103920000Y-116857738D01*
X103872380Y-116714880D01*
X103872380Y-116619642D01*
X103920000Y-116476785D01*
X103967619Y-116429166D01*
X103872380Y-116095833D02*
X103872380Y-115476785D01*
X104253333Y-115810119D01*
X104253333Y-115667261D01*
X104300952Y-115572023D01*
X104348571Y-115524404D01*
X104443809Y-115476785D01*
X104681904Y-115476785D01*
X104777142Y-115524404D01*
X104824761Y-115572023D01*
X104872380Y-115667261D01*
X104872380Y-115952976D01*
X104824761Y-116048214D01*
X104777142Y-116095833D01*
X130033333Y-143173809D02*
X130147619Y-143211904D01*
X130338095Y-143211904D01*
X130414285Y-143173809D01*
X130452380Y-143135714D01*
X130490476Y-143059523D01*
X130490476Y-142983333D01*
X130452380Y-142907142D01*
X130414285Y-142869047D01*
X130338095Y-142830952D01*
X130185714Y-142792857D01*
X130109523Y-142754761D01*
X130071428Y-142716666D01*
X130033333Y-142640476D01*
X130033333Y-142564285D01*
X130071428Y-142488095D01*
X130109523Y-142450000D01*
X130185714Y-142411904D01*
X130376190Y-142411904D01*
X130490476Y-142450000D01*
X130757142Y-142411904D02*
X130947619Y-143211904D01*
X131100000Y-142640476D01*
X131252380Y-143211904D01*
X131442857Y-142411904D01*
X131709523Y-142488095D02*
X131747619Y-142450000D01*
X131823809Y-142411904D01*
X132014285Y-142411904D01*
X132090476Y-142450000D01*
X132128571Y-142488095D01*
X132166666Y-142564285D01*
X132166666Y-142640476D01*
X132128571Y-142754761D01*
X131671428Y-143211904D01*
X132166666Y-143211904D01*
X101933333Y-114902380D02*
X101600000Y-114426190D01*
X101361904Y-114902380D02*
X101361904Y-113902380D01*
X101742857Y-113902380D01*
X101838095Y-113950000D01*
X101885714Y-113997619D01*
X101933333Y-114092857D01*
X101933333Y-114235714D01*
X101885714Y-114330952D01*
X101838095Y-114378571D01*
X101742857Y-114426190D01*
X101361904Y-114426190D01*
X102266666Y-113902380D02*
X102885714Y-113902380D01*
X102552380Y-114283333D01*
X102695238Y-114283333D01*
X102790476Y-114330952D01*
X102838095Y-114378571D01*
X102885714Y-114473809D01*
X102885714Y-114711904D01*
X102838095Y-114807142D01*
X102790476Y-114854761D01*
X102695238Y-114902380D01*
X102409523Y-114902380D01*
X102314285Y-114854761D01*
X102266666Y-114807142D01*
X112588095Y-122552380D02*
X113159523Y-122552380D01*
X112873809Y-123552380D02*
X112873809Y-122552380D01*
X113492857Y-123552380D02*
X113492857Y-122552380D01*
X113873809Y-122552380D01*
X113969047Y-122600000D01*
X114016666Y-122647619D01*
X114064285Y-122742857D01*
X114064285Y-122885714D01*
X114016666Y-122980952D01*
X113969047Y-123028571D01*
X113873809Y-123076190D01*
X113492857Y-123076190D01*
X114635714Y-122980952D02*
X114540476Y-122933333D01*
X114492857Y-122885714D01*
X114445238Y-122790476D01*
X114445238Y-122742857D01*
X114492857Y-122647619D01*
X114540476Y-122600000D01*
X114635714Y-122552380D01*
X114826190Y-122552380D01*
X114921428Y-122600000D01*
X114969047Y-122647619D01*
X115016666Y-122742857D01*
X115016666Y-122790476D01*
X114969047Y-122885714D01*
X114921428Y-122933333D01*
X114826190Y-122980952D01*
X114635714Y-122980952D01*
X114540476Y-123028571D01*
X114492857Y-123076190D01*
X114445238Y-123171428D01*
X114445238Y-123361904D01*
X114492857Y-123457142D01*
X114540476Y-123504761D01*
X114635714Y-123552380D01*
X114826190Y-123552380D01*
X114921428Y-123504761D01*
X114969047Y-123457142D01*
X115016666Y-123361904D01*
X115016666Y-123171428D01*
X114969047Y-123076190D01*
X114921428Y-123028571D01*
X114826190Y-122980952D01*
D12*
X98638243Y-113251195D02*
X99908243Y-112404528D01*
X98638243Y-112404528D02*
X99908243Y-113251195D01*
X99908243Y-111255480D02*
X99908243Y-111981195D01*
X99908243Y-111618338D02*
X98638243Y-111618338D01*
X98819672Y-111739290D01*
X98940624Y-111860242D01*
X99001100Y-111981195D01*
X90024523Y-119125714D02*
X88754523Y-119125714D01*
X88754523Y-118823333D01*
X88815000Y-118641904D01*
X88935952Y-118520952D01*
X89056904Y-118460476D01*
X89298809Y-118400000D01*
X89480238Y-118400000D01*
X89722142Y-118460476D01*
X89843095Y-118520952D01*
X89964047Y-118641904D01*
X90024523Y-118823333D01*
X90024523Y-119125714D01*
X88815000Y-117190476D02*
X88754523Y-117311428D01*
X88754523Y-117492857D01*
X88815000Y-117674285D01*
X88935952Y-117795238D01*
X89056904Y-117855714D01*
X89298809Y-117916190D01*
X89480238Y-117916190D01*
X89722142Y-117855714D01*
X89843095Y-117795238D01*
X89964047Y-117674285D01*
X90024523Y-117492857D01*
X90024523Y-117371904D01*
X89964047Y-117190476D01*
X89903571Y-117130000D01*
X89480238Y-117130000D01*
X89480238Y-117371904D01*
X88754523Y-116706666D02*
X88754523Y-115920476D01*
X89238333Y-116343809D01*
X89238333Y-116162380D01*
X89298809Y-116041428D01*
X89359285Y-115980952D01*
X89480238Y-115920476D01*
X89782619Y-115920476D01*
X89903571Y-115980952D01*
X89964047Y-116041428D01*
X90024523Y-116162380D01*
X90024523Y-116525238D01*
X89964047Y-116646190D01*
X89903571Y-116706666D01*
X88754523Y-115497142D02*
X90024523Y-114650476D01*
X88754523Y-114650476D02*
X90024523Y-115497142D01*
X88754523Y-114287619D02*
X90024523Y-113440952D01*
X88754523Y-113440952D02*
X90024523Y-114287619D01*
X89540714Y-112957142D02*
X89540714Y-111989523D01*
X88754523Y-111142857D02*
X88754523Y-111021904D01*
X88815000Y-110900952D01*
X88875476Y-110840476D01*
X88996428Y-110780000D01*
X89238333Y-110719523D01*
X89540714Y-110719523D01*
X89782619Y-110780000D01*
X89903571Y-110840476D01*
X89964047Y-110900952D01*
X90024523Y-111021904D01*
X90024523Y-111142857D01*
X89964047Y-111263809D01*
X89903571Y-111324285D01*
X89782619Y-111384761D01*
X89540714Y-111445238D01*
X89238333Y-111445238D01*
X88996428Y-111384761D01*
X88875476Y-111324285D01*
X88815000Y-111263809D01*
X88754523Y-111142857D01*
X88875476Y-110235714D02*
X88815000Y-110175238D01*
X88754523Y-110054285D01*
X88754523Y-109751904D01*
X88815000Y-109630952D01*
X88875476Y-109570476D01*
X88996428Y-109510000D01*
X89117380Y-109510000D01*
X89298809Y-109570476D01*
X90024523Y-110296190D01*
X90024523Y-109510000D01*
X89540714Y-108965714D02*
X89540714Y-107998095D01*
X88754523Y-106788571D02*
X88754523Y-107393333D01*
X89359285Y-107453809D01*
X89298809Y-107393333D01*
X89238333Y-107272380D01*
X89238333Y-106970000D01*
X89298809Y-106849047D01*
X89359285Y-106788571D01*
X89480238Y-106728095D01*
X89782619Y-106728095D01*
X89903571Y-106788571D01*
X89964047Y-106849047D01*
X90024523Y-106970000D01*
X90024523Y-107272380D01*
X89964047Y-107393333D01*
X89903571Y-107453809D01*
X89903571Y-106183809D02*
X89964047Y-106123333D01*
X90024523Y-106183809D01*
X89964047Y-106244285D01*
X89903571Y-106183809D01*
X90024523Y-106183809D01*
X88754523Y-105337142D02*
X88754523Y-105216190D01*
X88815000Y-105095238D01*
X88875476Y-105034761D01*
X88996428Y-104974285D01*
X89238333Y-104913809D01*
X89540714Y-104913809D01*
X89782619Y-104974285D01*
X89903571Y-105034761D01*
X89964047Y-105095238D01*
X90024523Y-105216190D01*
X90024523Y-105337142D01*
X89964047Y-105458095D01*
X89903571Y-105518571D01*
X89782619Y-105579047D01*
X89540714Y-105639523D01*
X89238333Y-105639523D01*
X88996428Y-105579047D01*
X88875476Y-105518571D01*
X88815000Y-105458095D01*
X88754523Y-105337142D01*
D10*
X115788095Y-122552380D02*
X116359523Y-122552380D01*
X116073809Y-123552380D02*
X116073809Y-122552380D01*
X116692857Y-123552380D02*
X116692857Y-122552380D01*
X117073809Y-122552380D01*
X117169047Y-122600000D01*
X117216666Y-122647619D01*
X117264285Y-122742857D01*
X117264285Y-122885714D01*
X117216666Y-122980952D01*
X117169047Y-123028571D01*
X117073809Y-123076190D01*
X116692857Y-123076190D01*
X117645238Y-122647619D02*
X117692857Y-122600000D01*
X117788095Y-122552380D01*
X118026190Y-122552380D01*
X118121428Y-122600000D01*
X118169047Y-122647619D01*
X118216666Y-122742857D01*
X118216666Y-122838095D01*
X118169047Y-122980952D01*
X117597619Y-123552380D01*
X118216666Y-123552380D01*
X140713095Y-124102380D02*
X141284523Y-124102380D01*
X140998809Y-125102380D02*
X140998809Y-124102380D01*
X141617857Y-125102380D02*
X141617857Y-124102380D01*
X141998809Y-124102380D01*
X142094047Y-124150000D01*
X142141666Y-124197619D01*
X142189285Y-124292857D01*
X142189285Y-124435714D01*
X142141666Y-124530952D01*
X142094047Y-124578571D01*
X141998809Y-124626190D01*
X141617857Y-124626190D01*
X142522619Y-124102380D02*
X143141666Y-124102380D01*
X142808333Y-124483333D01*
X142951190Y-124483333D01*
X143046428Y-124530952D01*
X143094047Y-124578571D01*
X143141666Y-124673809D01*
X143141666Y-124911904D01*
X143094047Y-125007142D01*
X143046428Y-125054761D01*
X142951190Y-125102380D01*
X142665476Y-125102380D01*
X142570238Y-125054761D01*
X142522619Y-125007142D01*
X159561904Y-137002380D02*
X159561904Y-136002380D01*
X159800000Y-136002380D01*
X159942857Y-136050000D01*
X160038095Y-136145238D01*
X160085714Y-136240476D01*
X160133333Y-136430952D01*
X160133333Y-136573809D01*
X160085714Y-136764285D01*
X160038095Y-136859523D01*
X159942857Y-136954761D01*
X159800000Y-137002380D01*
X159561904Y-137002380D01*
X161085714Y-137002380D02*
X160514285Y-137002380D01*
X160800000Y-137002380D02*
X160800000Y-136002380D01*
X160704761Y-136145238D01*
X160609523Y-136240476D01*
X160514285Y-136288095D01*
X145577380Y-129363095D02*
X145577380Y-128791666D01*
X146577380Y-129077380D02*
X145577380Y-129077380D01*
X146577380Y-128458333D02*
X145577380Y-128458333D01*
X145577380Y-128077380D01*
X145625000Y-127982142D01*
X145672619Y-127934523D01*
X145767857Y-127886904D01*
X145910714Y-127886904D01*
X146005952Y-127934523D01*
X146053571Y-127982142D01*
X146101190Y-128077380D01*
X146101190Y-128458333D01*
X146577380Y-126934523D02*
X146577380Y-127505952D01*
X146577380Y-127220238D02*
X145577380Y-127220238D01*
X145720238Y-127315476D01*
X145815476Y-127410714D01*
X145863095Y-127505952D01*
X145577380Y-126315476D02*
X145577380Y-126220238D01*
X145625000Y-126125000D01*
X145672619Y-126077380D01*
X145767857Y-126029761D01*
X145958333Y-125982142D01*
X146196428Y-125982142D01*
X146386904Y-126029761D01*
X146482142Y-126077380D01*
X146529761Y-126125000D01*
X146577380Y-126220238D01*
X146577380Y-126315476D01*
X146529761Y-126410714D01*
X146482142Y-126458333D01*
X146386904Y-126505952D01*
X146196428Y-126553571D01*
X145958333Y-126553571D01*
X145767857Y-126505952D01*
X145672619Y-126458333D01*
X145625000Y-126410714D01*
X145577380Y-126315476D01*
X123383333Y-135223809D02*
X123497619Y-135261904D01*
X123688095Y-135261904D01*
X123764285Y-135223809D01*
X123802380Y-135185714D01*
X123840476Y-135109523D01*
X123840476Y-135033333D01*
X123802380Y-134957142D01*
X123764285Y-134919047D01*
X123688095Y-134880952D01*
X123535714Y-134842857D01*
X123459523Y-134804761D01*
X123421428Y-134766666D01*
X123383333Y-134690476D01*
X123383333Y-134614285D01*
X123421428Y-134538095D01*
X123459523Y-134500000D01*
X123535714Y-134461904D01*
X123726190Y-134461904D01*
X123840476Y-134500000D01*
X124107142Y-134461904D02*
X124297619Y-135261904D01*
X124450000Y-134690476D01*
X124602380Y-135261904D01*
X124792857Y-134461904D01*
X125516666Y-135261904D02*
X125059523Y-135261904D01*
X125288095Y-135261904D02*
X125288095Y-134461904D01*
X125211904Y-134576190D01*
X125135714Y-134652380D01*
X125059523Y-134690476D01*
X146277380Y-121161904D02*
X146277380Y-120590476D01*
X147277380Y-120876190D02*
X146277380Y-120876190D01*
X147277380Y-120257142D02*
X146277380Y-120257142D01*
X146277380Y-119876190D01*
X146325000Y-119780952D01*
X146372619Y-119733333D01*
X146467857Y-119685714D01*
X146610714Y-119685714D01*
X146705952Y-119733333D01*
X146753571Y-119780952D01*
X146801190Y-119876190D01*
X146801190Y-120257142D01*
X147277380Y-119209523D02*
X147277380Y-119019047D01*
X147229761Y-118923809D01*
X147182142Y-118876190D01*
X147039285Y-118780952D01*
X146848809Y-118733333D01*
X146467857Y-118733333D01*
X146372619Y-118780952D01*
X146325000Y-118828571D01*
X146277380Y-118923809D01*
X146277380Y-119114285D01*
X146325000Y-119209523D01*
X146372619Y-119257142D01*
X146467857Y-119304761D01*
X146705952Y-119304761D01*
X146801190Y-119257142D01*
X146848809Y-119209523D01*
X146896428Y-119114285D01*
X146896428Y-118923809D01*
X146848809Y-118828571D01*
X146801190Y-118780952D01*
X146705952Y-118733333D01*
X156883333Y-124702380D02*
X156550000Y-124226190D01*
X156311904Y-124702380D02*
X156311904Y-123702380D01*
X156692857Y-123702380D01*
X156788095Y-123750000D01*
X156835714Y-123797619D01*
X156883333Y-123892857D01*
X156883333Y-124035714D01*
X156835714Y-124130952D01*
X156788095Y-124178571D01*
X156692857Y-124226190D01*
X156311904Y-124226190D01*
X157740476Y-123702380D02*
X157550000Y-123702380D01*
X157454761Y-123750000D01*
X157407142Y-123797619D01*
X157311904Y-123940476D01*
X157264285Y-124130952D01*
X157264285Y-124511904D01*
X157311904Y-124607142D01*
X157359523Y-124654761D01*
X157454761Y-124702380D01*
X157645238Y-124702380D01*
X157740476Y-124654761D01*
X157788095Y-124607142D01*
X157835714Y-124511904D01*
X157835714Y-124273809D01*
X157788095Y-124178571D01*
X157740476Y-124130952D01*
X157645238Y-124083333D01*
X157454761Y-124083333D01*
X157359523Y-124130952D01*
X157311904Y-124178571D01*
X157264285Y-124273809D01*
X137763095Y-133952380D02*
X138334523Y-133952380D01*
X138048809Y-134952380D02*
X138048809Y-133952380D01*
X138667857Y-134952380D02*
X138667857Y-133952380D01*
X139048809Y-133952380D01*
X139144047Y-134000000D01*
X139191666Y-134047619D01*
X139239285Y-134142857D01*
X139239285Y-134285714D01*
X139191666Y-134380952D01*
X139144047Y-134428571D01*
X139048809Y-134476190D01*
X138667857Y-134476190D01*
X139572619Y-133952380D02*
X140239285Y-133952380D01*
X139810714Y-134952380D01*
X125133333Y-136857142D02*
X125085714Y-136904761D01*
X124942857Y-136952380D01*
X124847619Y-136952380D01*
X124704761Y-136904761D01*
X124609523Y-136809523D01*
X124561904Y-136714285D01*
X124514285Y-136523809D01*
X124514285Y-136380952D01*
X124561904Y-136190476D01*
X124609523Y-136095238D01*
X124704761Y-136000000D01*
X124847619Y-135952380D01*
X124942857Y-135952380D01*
X125085714Y-136000000D01*
X125133333Y-136047619D01*
X126085714Y-136952380D02*
X125514285Y-136952380D01*
X125800000Y-136952380D02*
X125800000Y-135952380D01*
X125704761Y-136095238D01*
X125609523Y-136190476D01*
X125514285Y-136238095D01*
X160133333Y-140057142D02*
X160085714Y-140104761D01*
X159942857Y-140152380D01*
X159847619Y-140152380D01*
X159704761Y-140104761D01*
X159609523Y-140009523D01*
X159561904Y-139914285D01*
X159514285Y-139723809D01*
X159514285Y-139580952D01*
X159561904Y-139390476D01*
X159609523Y-139295238D01*
X159704761Y-139200000D01*
X159847619Y-139152380D01*
X159942857Y-139152380D01*
X160085714Y-139200000D01*
X160133333Y-139247619D01*
X160990476Y-139152380D02*
X160800000Y-139152380D01*
X160704761Y-139200000D01*
X160657142Y-139247619D01*
X160561904Y-139390476D01*
X160514285Y-139580952D01*
X160514285Y-139961904D01*
X160561904Y-140057142D01*
X160609523Y-140104761D01*
X160704761Y-140152380D01*
X160895238Y-140152380D01*
X160990476Y-140104761D01*
X161038095Y-140057142D01*
X161085714Y-139961904D01*
X161085714Y-139723809D01*
X161038095Y-139628571D01*
X160990476Y-139580952D01*
X160895238Y-139533333D01*
X160704761Y-139533333D01*
X160609523Y-139580952D01*
X160561904Y-139628571D01*
X160514285Y-139723809D01*
X106333333Y-144102380D02*
X106000000Y-143626190D01*
X105761904Y-144102380D02*
X105761904Y-143102380D01*
X106142857Y-143102380D01*
X106238095Y-143150000D01*
X106285714Y-143197619D01*
X106333333Y-143292857D01*
X106333333Y-143435714D01*
X106285714Y-143530952D01*
X106238095Y-143578571D01*
X106142857Y-143626190D01*
X105761904Y-143626190D01*
X106809523Y-144102380D02*
X107000000Y-144102380D01*
X107095238Y-144054761D01*
X107142857Y-144007142D01*
X107238095Y-143864285D01*
X107285714Y-143673809D01*
X107285714Y-143292857D01*
X107238095Y-143197619D01*
X107190476Y-143150000D01*
X107095238Y-143102380D01*
X106904761Y-143102380D01*
X106809523Y-143150000D01*
X106761904Y-143197619D01*
X106714285Y-143292857D01*
X106714285Y-143530952D01*
X106761904Y-143626190D01*
X106809523Y-143673809D01*
X106904761Y-143721428D01*
X107095238Y-143721428D01*
X107190476Y-143673809D01*
X107238095Y-143626190D01*
X107285714Y-143530952D01*
X150383333Y-125002380D02*
X150050000Y-124526190D01*
X149811904Y-125002380D02*
X149811904Y-124002380D01*
X150192857Y-124002380D01*
X150288095Y-124050000D01*
X150335714Y-124097619D01*
X150383333Y-124192857D01*
X150383333Y-124335714D01*
X150335714Y-124430952D01*
X150288095Y-124478571D01*
X150192857Y-124526190D01*
X149811904Y-124526190D01*
X150716666Y-124002380D02*
X151383333Y-124002380D01*
X150954761Y-125002380D01*
X101908333Y-106852380D02*
X101575000Y-106376190D01*
X101336904Y-106852380D02*
X101336904Y-105852380D01*
X101717857Y-105852380D01*
X101813095Y-105900000D01*
X101860714Y-105947619D01*
X101908333Y-106042857D01*
X101908333Y-106185714D01*
X101860714Y-106280952D01*
X101813095Y-106328571D01*
X101717857Y-106376190D01*
X101336904Y-106376190D01*
X102765476Y-106185714D02*
X102765476Y-106852380D01*
X102527380Y-105804761D02*
X102289285Y-106519047D01*
X102908333Y-106519047D01*
X104461904Y-127352380D02*
X105033333Y-127352380D01*
X104747619Y-128352380D02*
X104747619Y-127352380D01*
X105366666Y-128352380D02*
X105366666Y-127352380D01*
X105747619Y-127352380D01*
X105842857Y-127400000D01*
X105890476Y-127447619D01*
X105938095Y-127542857D01*
X105938095Y-127685714D01*
X105890476Y-127780952D01*
X105842857Y-127828571D01*
X105747619Y-127876190D01*
X105366666Y-127876190D01*
X106890476Y-128352380D02*
X106319047Y-128352380D01*
X106604761Y-128352380D02*
X106604761Y-127352380D01*
X106509523Y-127495238D01*
X106414285Y-127590476D01*
X106319047Y-127638095D01*
X107747619Y-127685714D02*
X107747619Y-128352380D01*
X107509523Y-127304761D02*
X107271428Y-128019047D01*
X107890476Y-128019047D01*
X135783333Y-137052380D02*
X135450000Y-136576190D01*
X135211904Y-137052380D02*
X135211904Y-136052380D01*
X135592857Y-136052380D01*
X135688095Y-136100000D01*
X135735714Y-136147619D01*
X135783333Y-136242857D01*
X135783333Y-136385714D01*
X135735714Y-136480952D01*
X135688095Y-136528571D01*
X135592857Y-136576190D01*
X135211904Y-136576190D01*
X136735714Y-137052380D02*
X136164285Y-137052380D01*
X136450000Y-137052380D02*
X136450000Y-136052380D01*
X136354761Y-136195238D01*
X136259523Y-136290476D01*
X136164285Y-136338095D01*
X139783333Y-129152380D02*
X139450000Y-128676190D01*
X139211904Y-129152380D02*
X139211904Y-128152380D01*
X139592857Y-128152380D01*
X139688095Y-128200000D01*
X139735714Y-128247619D01*
X139783333Y-128342857D01*
X139783333Y-128485714D01*
X139735714Y-128580952D01*
X139688095Y-128628571D01*
X139592857Y-128676190D01*
X139211904Y-128676190D01*
X140164285Y-128247619D02*
X140211904Y-128200000D01*
X140307142Y-128152380D01*
X140545238Y-128152380D01*
X140640476Y-128200000D01*
X140688095Y-128247619D01*
X140735714Y-128342857D01*
X140735714Y-128438095D01*
X140688095Y-128580952D01*
X140116666Y-129152380D01*
X140735714Y-129152380D01*
X119062142Y-116541666D02*
X119109761Y-116589285D01*
X119157380Y-116732142D01*
X119157380Y-116827380D01*
X119109761Y-116970238D01*
X119014523Y-117065476D01*
X118919285Y-117113095D01*
X118728809Y-117160714D01*
X118585952Y-117160714D01*
X118395476Y-117113095D01*
X118300238Y-117065476D01*
X118205000Y-116970238D01*
X118157380Y-116827380D01*
X118157380Y-116732142D01*
X118205000Y-116589285D01*
X118252619Y-116541666D01*
X118157380Y-115636904D02*
X118157380Y-116113095D01*
X118633571Y-116160714D01*
X118585952Y-116113095D01*
X118538333Y-116017857D01*
X118538333Y-115779761D01*
X118585952Y-115684523D01*
X118633571Y-115636904D01*
X118728809Y-115589285D01*
X118966904Y-115589285D01*
X119062142Y-115636904D01*
X119109761Y-115684523D01*
X119157380Y-115779761D01*
X119157380Y-116017857D01*
X119109761Y-116113095D01*
X119062142Y-116160714D01*
X142452380Y-121138095D02*
X142452380Y-120566666D01*
X143452380Y-120852380D02*
X142452380Y-120852380D01*
X143452380Y-120233333D02*
X142452380Y-120233333D01*
X142452380Y-119852380D01*
X142500000Y-119757142D01*
X142547619Y-119709523D01*
X142642857Y-119661904D01*
X142785714Y-119661904D01*
X142880952Y-119709523D01*
X142928571Y-119757142D01*
X142976190Y-119852380D01*
X142976190Y-120233333D01*
X143452380Y-118709523D02*
X143452380Y-119280952D01*
X143452380Y-118995238D02*
X142452380Y-118995238D01*
X142595238Y-119090476D01*
X142690476Y-119185714D01*
X142738095Y-119280952D01*
X143452380Y-117757142D02*
X143452380Y-118328571D01*
X143452380Y-118042857D02*
X142452380Y-118042857D01*
X142595238Y-118138095D01*
X142690476Y-118233333D01*
X142738095Y-118328571D01*
X108877380Y-116541666D02*
X108401190Y-116875000D01*
X108877380Y-117113095D02*
X107877380Y-117113095D01*
X107877380Y-116732142D01*
X107925000Y-116636904D01*
X107972619Y-116589285D01*
X108067857Y-116541666D01*
X108210714Y-116541666D01*
X108305952Y-116589285D01*
X108353571Y-116636904D01*
X108401190Y-116732142D01*
X108401190Y-117113095D01*
X107877380Y-115636904D02*
X107877380Y-116113095D01*
X108353571Y-116160714D01*
X108305952Y-116113095D01*
X108258333Y-116017857D01*
X108258333Y-115779761D01*
X108305952Y-115684523D01*
X108353571Y-115636904D01*
X108448809Y-115589285D01*
X108686904Y-115589285D01*
X108782142Y-115636904D01*
X108829761Y-115684523D01*
X108877380Y-115779761D01*
X108877380Y-116017857D01*
X108829761Y-116113095D01*
X108782142Y-116160714D01*
X150433333Y-104507142D02*
X150385714Y-104554761D01*
X150242857Y-104602380D01*
X150147619Y-104602380D01*
X150004761Y-104554761D01*
X149909523Y-104459523D01*
X149861904Y-104364285D01*
X149814285Y-104173809D01*
X149814285Y-104030952D01*
X149861904Y-103840476D01*
X149909523Y-103745238D01*
X150004761Y-103650000D01*
X150147619Y-103602380D01*
X150242857Y-103602380D01*
X150385714Y-103650000D01*
X150433333Y-103697619D01*
X151004761Y-104030952D02*
X150909523Y-103983333D01*
X150861904Y-103935714D01*
X150814285Y-103840476D01*
X150814285Y-103792857D01*
X150861904Y-103697619D01*
X150909523Y-103650000D01*
X151004761Y-103602380D01*
X151195238Y-103602380D01*
X151290476Y-103650000D01*
X151338095Y-103697619D01*
X151385714Y-103792857D01*
X151385714Y-103840476D01*
X151338095Y-103935714D01*
X151290476Y-103983333D01*
X151195238Y-104030952D01*
X151004761Y-104030952D01*
X150909523Y-104078571D01*
X150861904Y-104126190D01*
X150814285Y-104221428D01*
X150814285Y-104411904D01*
X150861904Y-104507142D01*
X150909523Y-104554761D01*
X151004761Y-104602380D01*
X151195238Y-104602380D01*
X151290476Y-104554761D01*
X151338095Y-104507142D01*
X151385714Y-104411904D01*
X151385714Y-104221428D01*
X151338095Y-104126190D01*
X151290476Y-104078571D01*
X151195238Y-104030952D01*
X145427380Y-113113095D02*
X145427380Y-112541666D01*
X146427380Y-112827380D02*
X145427380Y-112827380D01*
X146427380Y-112208333D02*
X145427380Y-112208333D01*
X145427380Y-111827380D01*
X145475000Y-111732142D01*
X145522619Y-111684523D01*
X145617857Y-111636904D01*
X145760714Y-111636904D01*
X145855952Y-111684523D01*
X145903571Y-111732142D01*
X145951190Y-111827380D01*
X145951190Y-112208333D01*
X146427380Y-110684523D02*
X146427380Y-111255952D01*
X146427380Y-110970238D02*
X145427380Y-110970238D01*
X145570238Y-111065476D01*
X145665476Y-111160714D01*
X145713095Y-111255952D01*
X145427380Y-109779761D02*
X145427380Y-110255952D01*
X145903571Y-110303571D01*
X145855952Y-110255952D01*
X145808333Y-110160714D01*
X145808333Y-109922619D01*
X145855952Y-109827380D01*
X145903571Y-109779761D01*
X145998809Y-109732142D01*
X146236904Y-109732142D01*
X146332142Y-109779761D01*
X146379761Y-109827380D01*
X146427380Y-109922619D01*
X146427380Y-110160714D01*
X146379761Y-110255952D01*
X146332142Y-110303571D01*
X106088095Y-122502380D02*
X106659523Y-122502380D01*
X106373809Y-123502380D02*
X106373809Y-122502380D01*
X106992857Y-123502380D02*
X106992857Y-122502380D01*
X107373809Y-122502380D01*
X107469047Y-122550000D01*
X107516666Y-122597619D01*
X107564285Y-122692857D01*
X107564285Y-122835714D01*
X107516666Y-122930952D01*
X107469047Y-122978571D01*
X107373809Y-123026190D01*
X106992857Y-123026190D01*
X108516666Y-123502380D02*
X107945238Y-123502380D01*
X108230952Y-123502380D02*
X108230952Y-122502380D01*
X108135714Y-122645238D01*
X108040476Y-122740476D01*
X107945238Y-122788095D01*
D13*
X104975000Y-108775000D02*
X106825000Y-108775000D01*
X106825000Y-106875000D02*
X104975000Y-106875000D01*
X106825000Y-106925000D02*
X106825000Y-106875000D01*
X104975000Y-106875000D02*
X104975000Y-108775000D01*
X106825000Y-108775000D02*
X106825000Y-106925000D01*
X111100000Y-124300000D02*
X111100000Y-124250000D01*
X111100000Y-124250000D02*
X109250000Y-124250000D01*
X109250000Y-124250000D02*
X109250000Y-126150000D01*
X111100000Y-126150000D02*
X111100000Y-124300000D01*
X109250000Y-126150000D02*
X111100000Y-126150000D01*
X139000000Y-103750000D02*
X139000000Y-110250000D01*
X139000000Y-123750000D02*
X121000000Y-123750000D01*
X139000000Y-109750000D02*
X121050000Y-109750000D01*
X121000000Y-123750000D02*
X121000000Y-123500000D01*
X121000000Y-103750000D02*
X139000000Y-103750000D01*
X139000000Y-123500000D02*
X139000000Y-123750000D01*
X121000000Y-103750000D02*
X121000000Y-110250000D01*
D14*
X145430000Y-113925000D02*
X145430000Y-116985000D01*
X148970000Y-116985000D02*
X148970000Y-113925000D01*
D15*
X148500000Y-117500000D02*
G75*
G03*
X148500000Y-117500000I-100000J0D01*
G01*
D16*
X109964600Y-112269200D02*
X112707800Y-112269200D01*
X111031400Y-107290800D02*
X109964600Y-107290800D01*
X112707800Y-107290800D02*
X111031400Y-107290800D01*
D17*
X111031400Y-107290800D02*
G75*
G03*
X111641000Y-107265400I304800J12700D01*
G01*
D13*
X109600000Y-120350000D02*
X109600000Y-122250000D01*
X111450000Y-120400000D02*
X111450000Y-120350000D01*
X111450000Y-120350000D02*
X109600000Y-120350000D01*
X111450000Y-122250000D02*
X111450000Y-120400000D01*
X109600000Y-122250000D02*
X111450000Y-122250000D01*
X147252064Y-131960000D02*
X146797936Y-131960000D01*
X147252064Y-130490000D02*
X146797936Y-130490000D01*
X114285000Y-116611252D02*
X114285000Y-116088748D01*
X112815000Y-116611252D02*
X112815000Y-116088748D01*
X147488748Y-106665000D02*
X148011252Y-106665000D01*
X147488748Y-108135000D02*
X148011252Y-108135000D01*
X106750000Y-112850000D02*
X106750000Y-111000000D01*
X104900000Y-110950000D02*
X104900000Y-112850000D01*
X106750000Y-110950000D02*
X104900000Y-110950000D01*
X106750000Y-111000000D02*
X106750000Y-110950000D01*
X104900000Y-112850000D02*
X106750000Y-112850000D01*
D15*
X158250000Y-133150000D02*
X158900000Y-133150000D01*
X155950000Y-133150000D02*
X155200000Y-133150000D01*
X158900000Y-133150000D02*
X158900000Y-126950000D01*
X155200000Y-126950000D02*
X155950000Y-126950000D01*
X155200000Y-133150000D02*
X155200000Y-126950000D01*
X158900000Y-126950000D02*
X158150000Y-126950000D01*
X156150000Y-131750000D02*
G75*
G03*
X156150000Y-131750000I-100000J0D01*
G01*
D13*
X101826248Y-109740000D02*
X102348752Y-109740000D01*
X101826248Y-111210000D02*
X102348752Y-111210000D01*
X106835000Y-116523752D02*
X106835000Y-116001248D01*
X105365000Y-116523752D02*
X105365000Y-116001248D01*
D15*
X127500000Y-141750000D02*
X133700000Y-141750000D01*
X127500000Y-141100000D02*
X127500000Y-141750000D01*
X127500000Y-138800000D02*
X127500000Y-138050000D01*
X133700000Y-138050000D02*
X133700000Y-138800000D01*
X127500000Y-138050000D02*
X133700000Y-138050000D01*
X133700000Y-141750000D02*
X133700000Y-141000000D01*
X129000000Y-138900000D02*
G75*
G03*
X129000000Y-138900000I-100000J0D01*
G01*
D13*
X102327064Y-112065000D02*
X101872936Y-112065000D01*
X102327064Y-113535000D02*
X101872936Y-113535000D01*
X112900000Y-120350000D02*
X112900000Y-122250000D01*
X114750000Y-120350000D02*
X112900000Y-120350000D01*
X114750000Y-120400000D02*
X114750000Y-120350000D01*
X114750000Y-122250000D02*
X114750000Y-120400000D01*
X112900000Y-122250000D02*
X114750000Y-122250000D01*
D14*
X90601200Y-116548720D02*
X90601200Y-106551280D01*
X96699740Y-106050900D02*
X96699740Y-106551280D01*
X96199360Y-106551280D02*
X96699740Y-106551280D01*
X98198340Y-106551280D02*
X98198340Y-116548720D01*
X89874760Y-108738220D02*
X90349740Y-109055720D01*
X98198340Y-116548720D02*
X90601200Y-116548720D01*
X90601200Y-106551280D02*
X96199360Y-106551280D01*
X96199360Y-106551280D02*
X96199360Y-106050900D01*
X89874760Y-109373220D02*
X89874760Y-108738220D01*
X96699740Y-106551280D02*
X98198340Y-106551280D01*
X96199360Y-106050900D02*
X96699740Y-106050900D01*
X90349740Y-109055720D02*
X89874760Y-109373220D01*
D13*
X116100000Y-120350000D02*
X116100000Y-122250000D01*
X117950000Y-122250000D02*
X117950000Y-120400000D01*
X117950000Y-120400000D02*
X117950000Y-120350000D01*
X116100000Y-122250000D02*
X117950000Y-122250000D01*
X117950000Y-120350000D02*
X116100000Y-120350000D01*
X142875000Y-121900000D02*
X141025000Y-121900000D01*
X142875000Y-121950000D02*
X142875000Y-121900000D01*
X141025000Y-121900000D02*
X141025000Y-123800000D01*
X141025000Y-123800000D02*
X142875000Y-123800000D01*
X142875000Y-123800000D02*
X142875000Y-121950000D01*
X156225000Y-137410000D02*
X159085000Y-137410000D01*
X159085000Y-135490000D02*
X156225000Y-135490000D01*
X159085000Y-137410000D02*
X159085000Y-135490000D01*
X148875000Y-128525000D02*
X148875000Y-126675000D01*
X148875000Y-126675000D02*
X146975000Y-126675000D01*
X148825000Y-128525000D02*
X148875000Y-128525000D01*
X146975000Y-128525000D02*
X148825000Y-128525000D01*
X146975000Y-126675000D02*
X146975000Y-128525000D01*
D15*
X133700000Y-132075000D02*
X133700000Y-131425000D01*
X127500000Y-131425000D02*
X127500000Y-132175000D01*
X133700000Y-131425000D02*
X127500000Y-131425000D01*
X127500000Y-135125000D02*
X127500000Y-134375000D01*
X133700000Y-134375000D02*
X133700000Y-135125000D01*
X133700000Y-135125000D02*
X127500000Y-135125000D01*
X132400000Y-134275000D02*
G75*
G03*
X132400000Y-134275000I-100000J0D01*
G01*
D13*
X149575000Y-118950000D02*
X147675000Y-118950000D01*
X149525000Y-120800000D02*
X149575000Y-120800000D01*
X147675000Y-120800000D02*
X149525000Y-120800000D01*
X149575000Y-120800000D02*
X149575000Y-118950000D01*
X147675000Y-118950000D02*
X147675000Y-120800000D01*
X157277064Y-121865000D02*
X156822936Y-121865000D01*
X157277064Y-123335000D02*
X156822936Y-123335000D01*
X139925000Y-131800000D02*
X139925000Y-131750000D01*
X138075000Y-133650000D02*
X139925000Y-133650000D01*
X139925000Y-131750000D02*
X138075000Y-131750000D01*
X138075000Y-131750000D02*
X138075000Y-133650000D01*
X139925000Y-133650000D02*
X139925000Y-131800000D01*
X127901248Y-137310000D02*
X128423752Y-137310000D01*
X127901248Y-135840000D02*
X128423752Y-135840000D01*
X157088748Y-138965000D02*
X157611252Y-138965000D01*
X157088748Y-140435000D02*
X157611252Y-140435000D01*
X106727064Y-142735000D02*
X106272936Y-142735000D01*
X106727064Y-141265000D02*
X106272936Y-141265000D01*
X147827064Y-123790000D02*
X147372936Y-123790000D01*
X147827064Y-125260000D02*
X147372936Y-125260000D01*
X101847936Y-108785000D02*
X102302064Y-108785000D01*
X101847936Y-107315000D02*
X102302064Y-107315000D01*
X107100000Y-126150000D02*
X107100000Y-124300000D01*
X105250000Y-124250000D02*
X105250000Y-126150000D01*
X107100000Y-124300000D02*
X107100000Y-124250000D01*
X107100000Y-124250000D02*
X105250000Y-124250000D01*
X105250000Y-126150000D02*
X107100000Y-126150000D01*
X133352064Y-135890000D02*
X132897936Y-135890000D01*
X133352064Y-137360000D02*
X132897936Y-137360000D01*
X140177064Y-127785000D02*
X139722936Y-127785000D01*
X140177064Y-126315000D02*
X139722936Y-126315000D01*
X117760000Y-116113748D02*
X117760000Y-116636252D01*
X116290000Y-116113748D02*
X116290000Y-116636252D01*
X145875000Y-119025000D02*
X143975000Y-119025000D01*
X143975000Y-120875000D02*
X145825000Y-120875000D01*
X145825000Y-120875000D02*
X145875000Y-120875000D01*
X143975000Y-119025000D02*
X143975000Y-120875000D01*
X145875000Y-120875000D02*
X145875000Y-119025000D01*
X109340000Y-116602064D02*
X109340000Y-116147936D01*
X110810000Y-116602064D02*
X110810000Y-116147936D01*
X148011252Y-103315000D02*
X147488748Y-103315000D01*
X148011252Y-104785000D02*
X147488748Y-104785000D01*
X148725000Y-110425000D02*
X146825000Y-110425000D01*
X148675000Y-112275000D02*
X148725000Y-112275000D01*
X148725000Y-112275000D02*
X148725000Y-110425000D01*
X146825000Y-112275000D02*
X148675000Y-112275000D01*
X146825000Y-110425000D02*
X146825000Y-112275000D01*
X106300000Y-120350000D02*
X106300000Y-122250000D01*
X108150000Y-120350000D02*
X106300000Y-120350000D01*
X106300000Y-122250000D02*
X108150000Y-122250000D01*
X108150000Y-122250000D02*
X108150000Y-120400000D01*
X108150000Y-120400000D02*
X108150000Y-120350000D01*
D18*
X95900000Y-129710000D03*
X93360000Y-132250000D03*
X95900000Y-134790000D03*
%LPC*%
D19*
X159950000Y-100150000D03*
X91250000Y-100250000D03*
X118300000Y-143150000D03*
D18*
X95900000Y-129710000D03*
X93360000Y-132250000D03*
X95900000Y-134790000D03*
D20*
X105925000Y-107825000D03*
X110200000Y-125200000D03*
D21*
X121250000Y-110850000D03*
X121250000Y-112350000D03*
X121250000Y-113850000D03*
X121250000Y-115350000D03*
X121250000Y-116850000D03*
X121250000Y-118350000D03*
X121250000Y-119850000D03*
X121250000Y-121350000D03*
X121250000Y-122850000D03*
X138750000Y-122850000D03*
X138750000Y-121350000D03*
X138750000Y-119850000D03*
X138750000Y-118350000D03*
X138750000Y-116850000D03*
X138750000Y-115350000D03*
X138750000Y-113850000D03*
X138750000Y-112350000D03*
X138750000Y-110850000D03*
D22*
X130910000Y-118150000D03*
X130910000Y-115950000D03*
X132060000Y-118150000D03*
X132060000Y-117050000D03*
X129860000Y-118150000D03*
X130910000Y-117050000D03*
X129860000Y-117050000D03*
X132060000Y-115950000D03*
X129860000Y-115950000D03*
D23*
X148400000Y-116655000D03*
X147600000Y-116655000D03*
X146800000Y-116655000D03*
X146000000Y-116655000D03*
X145980000Y-114255000D03*
X146800000Y-114255000D03*
X147600000Y-114255000D03*
X148400000Y-114255000D03*
D24*
X108872400Y-107875000D03*
X108872400Y-109145000D03*
X108872400Y-110415000D03*
X108872400Y-111685000D03*
X113800000Y-111685000D03*
X113800000Y-110415000D03*
X113800000Y-109145000D03*
X113800000Y-107875000D03*
D20*
X110550000Y-121300000D03*
D25*
X148025000Y-131225000D03*
X146025000Y-131225000D03*
D26*
X113550000Y-117387500D03*
X113550000Y-115312500D03*
D27*
X146712500Y-107400000D03*
X148787500Y-107400000D03*
D20*
X105850000Y-111900000D03*
D28*
X157050000Y-133400000D03*
X157050000Y-126700000D03*
D27*
X101050000Y-110475000D03*
X103125000Y-110475000D03*
D26*
X106100000Y-117300000D03*
X106100000Y-115225000D03*
D29*
X127250000Y-139900000D03*
X133950000Y-139900000D03*
D25*
X103100000Y-112800000D03*
X101100000Y-112800000D03*
D20*
X113850000Y-121300000D03*
D30*
X93700000Y-114049360D03*
X93700000Y-109050640D03*
D20*
X117050000Y-121300000D03*
X141975000Y-122850000D03*
D31*
X158250000Y-136450000D03*
X156200000Y-136450000D03*
D20*
X147925000Y-127625000D03*
D29*
X133950000Y-133275000D03*
X127250000Y-133275000D03*
D20*
X148625000Y-119900000D03*
D25*
X158050000Y-122600000D03*
X156050000Y-122600000D03*
D20*
X139025000Y-132700000D03*
D27*
X127125000Y-136575000D03*
X129200000Y-136575000D03*
X156312500Y-139700000D03*
X158387500Y-139700000D03*
D25*
X107500000Y-142000000D03*
X105500000Y-142000000D03*
X148600000Y-124525000D03*
X146600000Y-124525000D03*
D32*
X101075000Y-108050000D03*
X103075000Y-108050000D03*
D20*
X106200000Y-125200000D03*
D25*
X134125000Y-136625000D03*
X132125000Y-136625000D03*
X140950000Y-127050000D03*
X138950000Y-127050000D03*
D33*
X117025000Y-115337500D03*
X117025000Y-117412500D03*
D20*
X144925000Y-119975000D03*
D34*
X110075000Y-117375000D03*
X110075000Y-115375000D03*
D35*
X148787500Y-104050000D03*
X146712500Y-104050000D03*
D20*
X147775000Y-111375000D03*
X107250000Y-121300000D03*
D36*
X132150000Y-127950000D03*
D37*
X129610000Y-127950000D03*
X127070000Y-127950000D03*
X124530000Y-127950000D03*
D38*
X116000000Y-134750000D03*
D39*
X109500000Y-134750000D03*
D36*
X157200000Y-118300000D03*
D37*
X157200000Y-115760000D03*
X157200000Y-113220000D03*
X157200000Y-110680000D03*
X157200000Y-108140000D03*
X157200000Y-105600000D03*
M02*
